<?xml version="1.0" standalone="no"?>
<!DOCTYPE svg PUBLIC "-//W3C//DTD SVG 1.1//EN" "http://www.w3.org/Graphics/SVG/1.1/DTD/svg11.dtd" >
<svg xmlns="http://www.w3.org/2000/svg" xmlns:xlink="http://www.w3.org/1999/xlink" version="1.1">
<metadata>
Created by FontForge 20170731 at Sun Jun 28 19:13:19 2009
 By Aleksey,,,
Calligraphy:  Abdulla Waheed, Office of the President;  Managed by Hassan Shujau;  Edited by Hassan Hameed;  November 1995;  All rights reserved.  Based on the 1968 Viyafaari Miadhu Aharee Number.
</metadata>
<defs>
<font id="MVFaseyha" horiz-adv-x="50" >
  <font-face 
    font-family="MV Faseyha"
    font-weight="400"
    font-style="italic"
    font-stretch="normal"
    units-per-em="1000"
    panose-1="2 0 5 0 0 0 0 2 0 4"
    ascent="800"
    descent="-200"
    bbox="-179 -505 1535 884"
    underline-thickness="49"
    underline-position="-286"
    slope="-16"
    unicode-range="U+0020-FDF2"
  />
<missing-glyph horiz-adv-x="393" 
 />
    <glyph glyph-name="uniFDF2" unicode="&#xfdf2;" horiz-adv-x="991" arabic-form="isolated" 
d="M542 824l3 -40q0 -36 -20 -70q-22 -31 -48 -31l-22 3l-25 8q-36 -63 -73 -63q-22 0 -41 19l-11 23l-4 29l3 30l8 37l11 11q0 -70 36 -70q25 0 41 28q11 21 19 84l12 4q11 -65 43 -65q47 0 47 104l12 4zM731 227q0 -22 -1 -29q-3 -45 -27 -80q-27 -47 -67 -47
q-31 0 -55 25q-17 19 -53 90q-36 -124 -140 -124q-45 0 -73 23q-23 26 -36 82l-33 -34l-30 -24l-19 -8l-17 -4q-40 0 -85 15q-36 14 -36 36l5 22q7 14 23 44l27 43l21 25l14 15l18 14l32 23l46 22l-1 29l3 23l5 17l19 38l30 -164q13 -83 35 -111q21 -18 62 -24q34 0 60 17
l32 30l10 13l11 16l-51 198l-6 41l-3 41q0 22 6 35q5 11 30 41l12 -72l19 -97q4 -25 8 -40q6 -18 12 -37q19 -72 37 -104q28 -64 89 -64q33 0 33 32q0 15 -19 85l-35 144l-18 80l5 33l18 45l39 -145l26 -101q18 -75 18 -128zM250 199l21 11l-20 102q-53 -25 -68 -40
q-14 -10 -46 -60q24 -8 44 -12l38 -4zM863 361l8 -105l-1 -40q0 -14 -7 -34l-4 -17l-7 -27q-4 -23 -19 -58l-13 4l8 77l-1 53q0 15 -2 27q0 14 -5 36l-36 274l-6 71l1 31q0 7 12 41q6 27 32 75l4 -97l1 -36l1 -18q0 -13 4 -26z" />
    <glyph glyph-name=".notdef" horiz-adv-x="393" 
 />
    <glyph glyph-name=".null" horiz-adv-x="0" 
 />
    <glyph glyph-name="nonmarkingreturn" horiz-adv-x="500" 
 />
    <glyph glyph-name="space" unicode=" " horiz-adv-x="586" 
 />
    <glyph glyph-name="exclam" unicode="!" horiz-adv-x="333" 
d="M178 445l-40 -124h-19l34 135l22 122l30 181q9 45 31 67q11 11 29 11q13 0 22.5 -11t9.5 -28q0 -20 -9 -51q-20 -71 -80 -221zM104 244q21 0 36 -14.5t15 -35.5t-15 -35.5t-36 -14.5q-20 0 -34.5 14.5t-14.5 35.5q0 20 14.5 35t34.5 15z" />
    <glyph glyph-name="quotedbl" unicode="&#x22;" horiz-adv-x="420" 
d="M266 392h-23l14 143l8 65q7 41 24 57.5t47 19.5q36 0 36 -33q0 -15 -7 -33q-16 -48 -30 -76zM85 392h-21l15 145q6 61 13.5 86.5t25.5 40.5q17 13 38 13q17 0 27 -9.5t10 -24.5q0 -9 -6 -27q-4 -17 -35 -80z" />
    <glyph glyph-name="numbersign" unicode="#" horiz-adv-x="500" 
d="M97 -14h-41l46 222h-84v41h90l35 167h-125v39h133l46 222h40l-45 -222h164l49 222h39l-46 -222h83v-39h-89l-36 -167h125v-41h-132l-45 -222h-40l45 222h-166zM185 416l-36 -167h166l36 167h-166z" />
    <glyph glyph-name="dollar" unicode="$" horiz-adv-x="674" 
d="M109 362l7 5l22 3q10 1 17 7q10 3 24 16l17 13l25 19l22 16l9 9l7 6l-4 9l-2 8l-2 18l1 17l10 18q6 8 13 12l17 6h15l16 -3l20 -14l8 -11l19 10l20 14l32 25l26 20l24 14l25 11l19 6q7 0 15 -8q13 -10 13 -23l-3 -10l-8 -7q-8 -8 -26 -15l-17 -9l-20 -11l-26 -17l-29 -23
h20q37 0 52 -5q14 -3 14 -15l-5 -17l-7 -10q-10 -3 -15 -8l-35 -3h-10h-21h-18h-17l-35 6l-59 -45l-36 -29q-11 -6 -25 -20l-24 -22l-9 -6l-31 -19q-14 -6 -21 -6l-15 5l-12 9l-9 15q-3 6 -3 14q0 11 15 25zM513 170h-345q-29 0 -35 32q0 34 35 34h346q13 0 23 -10l8 -23
q0 -11 -8 -24q-9 -9 -24 -9zM513 1h-345q-29 0 -35 32q0 34 35 34h346q13 0 23 -10q3 -4 8 -24q0 -9 -8 -23q-9 -9 -24 -9z" />
    <glyph glyph-name="percent" unicode="%" horiz-adv-x="833" 
d="M771 677h46l-700 -703h-47zM264 677q46 0 80 -36q33 -37 33 -97q0 -92 -60 -156q-59 -65 -126 -65q-50 0 -83.5 37.5t-33.5 95.5q0 89 61 154q61 67 129 67zM268 656q-25 0 -44 -19q-36 -33 -61 -104q-26 -75 -26 -134q0 -25 14 -42q16 -16 36 -16q19 0 36 15
q33 30 63 103t30 138q0 26 -13.5 42.5t-34.5 16.5zM699 327q45 0 82 -37q34 -38 34 -98q3 -82 -60 -152.5t-127 -66.5q-47 0 -83 36q-33 36 -33 93q0 90 61 157q62 68 126 68zM705 307q-25 0 -43 -18q-33 -30 -61 -105q-28 -74 -28 -132q0 -26 14 -42.5t35 -16.5q24 0 40 16
q33 30 61 103q29 75 29 132q0 29 -13.5 46t-33.5 17z" />
    <glyph glyph-name="ampersand" unicode="&#x26;" horiz-adv-x="675" 
d="M368 241v12h143v-12q-31 -5 -51 -18q-18 -11 -46 -50q-37 -55 -58 -81q42 -71 91 -71q30 0 54 26h16q-40 -54 -101 -54q-63 0 -107 54q-72 -54 -153 -54q-62 0 -97.5 33t-35.5 86q0 62 54 111q35 31 141 67q-4 36 -4 46q0 71 38 114q37 41 91 41q36 0 57 -19t21 -50
q0 -38 -30 -72q-30 -35 -109 -60q26 -106 63 -176q54 66 54 106q0 17 -31 21zM278 312q56 26 72 44q26 29 26 63q0 22 -12.5 35.5t-32.5 13.5q-60 0 -60 -95q0 -27 7 -61zM222 268q-128 -48 -128 -139q0 -44 28.5 -73t73.5 -29q28 0 44 8q22 8 56 32q-24 39 -44 91
q-21 59 -30 110z" />
    <glyph glyph-name="quotesingle" unicode="'" horiz-adv-x="214" 
d="M153 392h-22l15 145q6 60 14 88q16 52 63 52q18 0 28 -9.5t10 -24.5q0 -13 -5 -25q-7 -21 -36 -82z" />
    <glyph glyph-name="parenleft" unicode="(" horiz-adv-x="333" 
d="M188 -206l-17 -8q-59 112 -82 192q-21 69 -21 138q0 157 73 281q92 156 290 297l11 -17q-90 -66 -147 -150q-70 -103 -117 -250q-45 -145 -45 -266q0 -95 55 -217z" />
    <glyph glyph-name="parenright" unicode=")" horiz-adv-x="333" 
d="M146 685l16 9q58 -109 83 -195q20 -68 20 -134q0 -158 -73 -282q-88 -150 -289 -297l-12 15q91 69 148 150q72 105 117 250t45 267q0 95 -55 217z" />
    <glyph glyph-name="asterisk" unicode="*" horiz-adv-x="500" 
d="M241 310q0 31 -13 67q-17 49 -17 66q0 24 11 37.5t30 13.5q16 0 27 -14t11 -36q0 -17 -13 -65t-16 -69q23 14 49 41q32 37 49 48q17 9 33 9q15 0 26 -11q10 -9 12 -26q0 -16 -16 -32q-16 -13 -81 -28q-41 -10 -62 -19q21 -12 70 -21q87 -16 87 -61q0 -15 -10.5 -25.5
t-25.5 -10.5q-17 0 -34 11t-47 45q-22 24 -50 45q0 -25 11 -61q18 -57 18 -79q0 -18 -11 -32t-26 -14q-18 0 -30.5 13t-12.5 34q0 23 12 56l14 46l5 37q-29 -20 -50 -43q-43 -46 -58 -53q-11 -5 -22 -5q-17 0 -28.5 10.5t-11.5 25.5q0 27 40 48l60 15q33 7 59 19
q-25 12 -63 20q-59 13 -74 23q-22 16 -22 39q0 14 11 24.5t25 10.5q16 0 35 -10q30 -23 45 -41q25 -32 54 -48z" />
    <glyph glyph-name="plus" unicode="+" horiz-adv-x="675" 
d="M316 69h-40l52 244h-243l8 40h243l51 242h40l-51 -242h243l-8 -40h-243z" />
    <glyph glyph-name="comma" unicode="," horiz-adv-x="250" 
d="M187 373l11 -15q-36 -16 -59 -42q-18 -19 -18 -38l3 -16l14 -15q16 -16 16 -36q0 -21 -14.5 -36t-34.5 -15t-35 17t-15 40q0 46 35.5 89.5t96.5 66.5z" />
    <glyph glyph-name="hyphen" unicode="-" horiz-adv-x="333" 
d="M46 250h253l-20 -65h-253z" />
    <glyph glyph-name="period" unicode="." horiz-adv-x="250" 
d="M123 287q21 0 35.5 -14.5t14.5 -34.5t-15.5 -34.5t-34.5 -14.5q-20 0 -34.5 15t-14.5 34q0 21 14 35t35 14z" />
    <glyph glyph-name="slash" unicode="/" horiz-adv-x="278" 
d="M341 694h40l-372 -709h-43z" />
    <glyph glyph-name="zero" unicode="0" horiz-adv-x="467" 
d="M313 676q62 0 105 -52q43 -54 43 -166q0 -91 -32 -195q-32 -103 -89 -176q-47 -59 -97 -84q-29 -15 -68 -15q-67 0 -107.5 54.5t-40.5 163.5q0 114 43 225q50 134 128 200q51 45 115 45zM313 650q-28 0 -57 -23q-63 -47 -120 -273q-36 -144 -36 -247q0 -49 21 -75t54 -26
q28 0 51 20q56 52 96 180q65 212 65 339q0 51 -21 78t-53 27z" />
    <glyph glyph-name="one" unicode="1" horiz-adv-x="401" 
d="M346 676h23l-157 -548q-13 -45 -13 -69q0 -19 11 -28q14 -9 59 -13l-4 -18h-252l7 18q35 0 53 6q23 10 30 24q16 22 33 80l113 393l12 42l1 19q0 36 -35 36l-39 -6l-7 18z" />
    <glyph glyph-name="two" unicode="2" horiz-adv-x="500" 
d="M400 132l-55 -132h-329v18q247 216 333 346q37 58 37 122q0 51 -31.5 83t-80.5 32q-70 0 -113 -66l-17 8q23 61 71.5 97t104.5 36q62 0 106 -44q43 -43 43 -104q0 -42 -15 -80q-22 -54 -87 -128q-95 -108 -255 -249h166q78 0 103 61h19z" />
    <glyph glyph-name="three" unicode="3" horiz-adv-x="470" 
d="M123 362v14q118 18 176 70q42 37 42 89q0 37 -24 63t-59 26q-54 0 -98 -68l-18 5q53 115 153 115q57 0 93 -34t36 -88q0 -101 -149 -160q103 -43 103 -155q0 -58 -35 -123q-37 -60 -97 -95q-64 -33 -129 -33q-62 0 -93 22q-21 16 -21 34q0 17 13 29t30 12l26 -3l38 -20
q23 -13 39 -19.5t22 -7l12 -1t10 -0.5q43 0 72 51q29 53 29 108q3 69 -44.5 116t-126.5 53z" />
    <glyph glyph-name="four" unicode="4" horiz-adv-x="500" 
d="M450 662h37l-127 -435h79l-17 -61h-80l-51 -178h-72l52 178h-240l21 68zM290 227l88 309l-284 -309h196z" />
    <glyph glyph-name="five" unicode="5" horiz-adv-x="479" 
d="M132 424l105 238h221l-22 -80h-199l-37 -82q80 -12 123 -49q68 -57 68 -160q0 -95 -49.5 -167t-114.5 -106q-57 -30 -115 -30q-50 0 -78 22q-19 15 -19 37q0 17 12 30q13 12 32 12q26 0 57 -26q24 -16 32 -21q8 -4 25 -4q55 0 101 55q47 56 47 142q0 58 -25 104
q-24 43 -60 60q-39 18 -104 25z" />
    <glyph glyph-name="six" unicode="6" horiz-adv-x="457" 
d="M481 676v-19q-85 -21 -162 -83t-136 -160q53 22 86 22q61 0 104 -46q44 -46 44 -120q0 -116 -75 -199q-74 -83 -161 -83q-81 0 -121 58t-40 136q0 101 46 197q47 99 125 168q79 71 165 102q53 20 125 27zM159 373q-71 -153 -71 -250q0 -51 27 -82q28 -31 60 -31
q57 0 106 82q49 84 49 190q0 53 -28.5 86.5t-69.5 33.5q-30 0 -73 -29z" />
    <glyph glyph-name="seven" unicode="7" horiz-adv-x="423" 
d="M40 517l77 145h329v-16l-371 -658l-39 18l325 578h-157q-68 0 -90 -12q-21 -10 -54 -55h-20z" />
    <glyph glyph-name="eight" unicode="8" horiz-adv-x="477" 
d="M313 371q91 -97 91 -184q0 -80 -61 -140q-62 -59 -149 -59q-80 0 -130 48q-50 50 -50 113q0 56 41 109q40 52 154 102q-74 91 -74 157q0 65 48 111q49 48 123 48q71 0 115 -41t44 -94q0 -117 -152 -170zM294 391q51 16 82 59q29 42 29 94q0 50 -27.5 78.5t-73.5 28.5
q-44 0 -71 -27.5t-27 -70.5q0 -31 15 -60q11 -24 28 -46q17 -24 45 -56zM227 340q-71 -29 -109 -85.5t-38 -125.5q0 -52 32 -86q35 -32 87 -32q57 0 94 39q38 41 38 94q0 42 -22 85q-23 45 -82 111z" />
    <glyph glyph-name="nine" unicode="9" horiz-adv-x="500" 
d="M29 -12v16q48 10 87 31q130 70 212 213q-44 -23 -83 -23q-75 0 -114 50q-38 50 -38 117q0 117 76 200q77 84 161 84q77 0 119 -58q42 -59 42 -137q0 -100 -45 -195t-126 -167q-77 -70 -165 -104q-51 -19 -126 -27zM353 289q68 141 68 249q0 52 -25 82t-62 30
q-57 0 -105 -81q-47 -80 -47 -191q0 -58 26 -89q30 -30 69 -30q19 1 33 6t20.5 8.5t22.5 15.5z" />
    <glyph glyph-name="colon" unicode=":" horiz-adv-x="333" 
d="M308 470q22 0 33 -14q7 -10 7 -24q0 -25 -22 -46q-18 -15 -39 -15q-20 0 -32 15q-8 10 -8 25q1 4 1 10q3 20 21 34.5t39 14.5zM242 237q20 0 31 -15q9 -10 9 -24q0 -8 -1 -10q-4 -20 -21.5 -34.5t-37.5 -14.5q-24 0 -33 14q-7 8 -7 24q0 8 1 11q4 20 21 34.5t38 14.5z
" />
    <glyph glyph-name="semicolon" unicode=";" horiz-adv-x="333" 
d="M351 580l5 -17q-59 -29 -74 -45q-14 -17 -18 -32v-17q2 -7 9 -17l9 -18q2 -10 -1 -18q-5 -21 -21 -36q-22 -15 -37 -15q-20 0 -33 16q-7 10 -7 28q0 11 1 14q8 36 33 64q13 17 27 30q17 15 33 26q19 12 74 37zM248 189q-4 -20 -21.5 -34.5t-38.5 -14.5q-20 0 -30.5 11
t-10.5 27q0 3 2 19q3 13 21.5 27.5t38.5 14.5t32 -14q8 -10 8 -25q0 -8 -1 -11z" />
    <glyph glyph-name="less" unicode="&#x3c;" horiz-adv-x="675" 
d="M87 321l5 24l574 227l-9 -42l-494 -197l410 -198l-10 -44z" />
    <glyph glyph-name="equal" unicode="=" horiz-adv-x="675" 
d="M101 391l9 40h527l-9 -40h-527zM67 232l9 40h527l-9 -40h-527z" />
    <glyph glyph-name="greater" unicode="&#x3e;" horiz-adv-x="675" 
d="M616 343l-5 -24l-574 -228l8 42l496 197l-412 198l11 44z" />
    <glyph glyph-name="at" unicode="@" horiz-adv-x="612" 
d="M104 211q7 0 27 12l16 10l23 16l21 12l8 8l7 4l-1 7l-1 7l2 14l3 13l12 15l11 9l15 5h12l12 -2l14 -11l4 -9l18 8l21 9q4 2 12 10t14 12l24 16l43 20q12 5 17 5q6 0 11 -6q7 -10 6 -19l-4 -8l-7 -6q-2 0 -5.5 -2t-9.5 -4.5t-9 -4.5l-19 -7l-13 -6l-13 -7l-13 -8l-25 -20
h16q30 0 41 -4q10 -3 7 -12l-6 -14l-7 -8q-8 -1 -13 -6l-29 -3h-8h-17h-14h-14l-26 5l-55 -36l-36 -23l-42 -32l-9 -5q-12 -6 -25 -6h-29l-15 5q-18 8 -22 17l-13 26q-7 18 -13 44q-5 20 -5 37q0 12 1 15q0 15 9 62q3 18 16 44t30 44q36 47 78 72q45 31 98 45q21 8 54 12
l58 3q68 0 129 -37q62 -36 90 -103q18 -37 18 -88q0 -29 -8 -66q-20 -111 -130.5 -199t-221.5 -85q-24 0 -46 8q-25 9 -37 16q-17 13 -15 29q6 14 14 21q4 3 16 3q2 0 9.5 -3l17.5 -7l15 -6q26 -8 42 -8q10 0 20.5 1.5t19 3.5t11.5 2q33 10 60 22q62 31 106.5 83t59.5 119
q6 28 6 66q0 31 -11 59q-9 27 -30 48q-16 17 -44 36l-22 13q-10 7 -22 10q-29 8 -57 8q-34 0 -62 -4l-30 -7q-18 -6 -25 -9q-58 -24 -99.5 -70.5t-52.5 -100.5q-5 -25 -5 -45q0 -32 10 -59l9 -12q10 -13 22 -13z" />
    <glyph glyph-name="bracketleft" unicode="[" horiz-adv-x="389" 
d="M214 -199h-208l257 876h208l-11 -33h-136l-236 -808h136z" />
    <glyph glyph-name="backslash" unicode="\" horiz-adv-x="278" 
d="M106 694h35l90 -709h-36z" />
    <glyph glyph-name="bracketright" unicode="]" horiz-adv-x="389" 
d="M167 677h208l-257 -876h-208l10 33h137l236 808h-136z" />
    <glyph glyph-name="grave" unicode="`" horiz-adv-x="1545" 
d="M250 145h1q0 -6 -2 -22.5t-2 -22.5q0 -42 15 -53q8 -9 33 -9q38 0 71 41q16 16 32 71q5 17 7 41l2 21q2 4 21 7l18 3l9 7q4 12 13 27q13 26 19 32l8 9q10 16 17 23q9 9 31 21l-20 3q-12 0 -30 -5q1 2 1.5 4t1 3.5l1 3t1.5 2.5q5 14 14 22q14 9 31 9q4 -2 13 -2l33 -5
l4 -16q-3 -15 -21 -29l-49 -34q-11 -5 -15 -23q1 0 7 -3q9 -9 9 -21q0 -10 -9 -18q-3 -3 -13 -3q-9 0 -15 2l-4 1q-1 0 -3.5 -3.5t-7 -8.5t-8.5 -7q-9 -3 -22 -13l-13 -11q-5 -5 -21 -65q-23 -64 -45 -93q-35 -48 -80 -48q-31 0 -46 21q-15 16 -15 51q-2 12 -2 15
q0 18 15 49l8 15zM292 376q-2 -9 -12 -23l-9 -7q-2 -1 -21 -18q-24 -21 -26 -21q-10 -10 -25 -10q-2 0 -13 3.5t-16 3.5q-12 0 -20 -5l-22 -18v-7q3 -12 14 -22q1 -3 6.5 -9t5.5 -7q0 -15 -11 -26q-9 -8 -27 -18l-29 -5q-10 -3 -23 -8q-18 -9 -25 -45q-7 -32 -7 -67
q0 -37 -3 -65q0 -4 0.5 -21.5t0.5 -24.5v-5v-5v-7q0 -23 -3 -37q0 -1 -5 -18q-1 -2 -7 -16l-1 104q0 3 -0.5 8t-1 14t-0.5 16l-2 35q0 18 4 44q0 17 5 39l10 33q10 28 30 46q13 13 20 15q12 6 18 7l7 2q0 1 -2 9t-2 9q0 22 18 48l15 15q17 20 33 25q4 2 10 2q9 0 16 -2
q8 -6 16 -6q10 0 16 6q1 0 17 16l12 12q-12 2 -17 3l-23 1l-5 -2l-16 -7l17 31q2 1 4.5 2.5t4.5 2.5q10 4 20 4q12 0 32 -9q21 -10 22 -15zM648 339v-27v-8l-1 -10q-1 -9 -1.5 -12t-3 -11t-6 -15.5t-9.5 -15.5q-6 -7 -19.5 -14.5t-27.5 -22.5q-2 -1 -18 -38l-7 -19
q-3 -9 -7 -12q-4 -4 -10 -4q-5 0 -15 2l-57 -5q11 2 25 13l5 5l6 3q3 1 16 10q5 3 13.5 11t11.5 10q11 12 15 24q4 14 21 46q6 9 36 28l3 2l10 7v7v44v37v58l3 6q3 5 9 14.5t8 13.5v-127zM863 195q-20 -34 -49 -34q-4 0 -14 8l-9 10q-6 -7 -24 -22q-17 -12 -24 -12
q-8 0 -15 4q-2 3 -11 12q-6 6 -8 9l-6 9l-14 -12q-30 -25 -33 -28q1 5 10 40l8 3q10 3 15 9q10 10 14 16q3 1 8 10l13 21l4 8l8 -26q1 -19 20 -19q8 0 23 12q16 15 24 33q5 7 3 13l5 -10q8 -12 12 -16l8 -8l3 -3q18 0 24 45q0 4 -1 12t-1 12l2 8q1 3 3.5 6.5t3.5 4.5
q2 3 7.5 9t7.5 8q3 -8 5 -22q4 -16 4 -22q0 -28 -8 -49q-3 -15 -18 -39zM706 451l5 18v-61q0 -45 -2 -66q-2 -31 -3 -35q-5 -8 -5 -13q-8 -14 -11 -17l1 141zM1514 402l16 25q5 -22 5 -26q0 -67 -58 -134q-56 -71 -154 -119q-112 -55 -218 -55l-36 -2q-18 0 -25 1
q-2 0 -12.5 1.5t-19.5 3.5q-11 2 -33 10q-2 0 -5 0.5t-5 1t-3.5 0.5h-2.5q-5 0 -5 -5q-6 -18 -21 -24q-4 -2 -11.5 1.5t-11.5 8.5l-5 10q-8 8 -12 8q-12 0 -26 -8q-15 -8 -19 -18q-14 -21 -20 -59q-6 -41 -6 -77v-74q0 -41 -1 -46q-1 0 -2 -1q-5 -5 -14 -23l-1 -2
q0 -1 -0.5 -2.5t-1.5 -3.5q-2 4 -2 19v21v10v37q0 53 5 108q0 47 21 108q18 49 59 67q9 23 20 26q4 4 11 -3q8 -4 19 -13l17 -2l44 -11q43 -8 72 -8q47 0 136 19q33 6 79 22q33 13 82 38q56 34 60 37q26 17 51 42l23 26q16 22 16 40q0 12 -5 25zM1516 104l-26 -30l-29 27
l28 29q10 -10 13 -12zM354 154l-26 -29l-29 27l27 29l14 -14zM123 94l-26 -30l-29 28l28 29q10 -10 13 -12q14 -14 14 -15zM184 95l-28 -30l-28 28l27 29q14 -12 15 -13q3 -3 6 -5.5t4 -4t2 -3.5zM945 447v-61q0 -76 -7 -101q-1 -3 -3 -7.5t-2 -5.5q-8 -15 -10 -16l1 140
q6 17 13 33q1 3 4 9t4 9zM398 480v-61q0 -45 -2 -65q-1 -25 -4 -36q-1 -2 -2.5 -7t-2.5 -7q-3 -5 -7 -10l-3 -5l1 141l13 33q1 2 3.5 8t3.5 9zM821 364v-9q0 -13 -7 -16h-8h-5q-3 -7 -9 -7q-10 0 -10 7q-1 1 -1 6q0 19 8 19v-10q0 -4 3 -4q7 0 12 14q8 0 3 -9h4q7 1 7 11z
M590 465v-7q0 -11 -7 -18h-9h-5q-4 -6 -9 -6q-9 0 -9 6q0 1 -0.5 3.5t-0.5 3.5q0 5 1 9t2.5 6.5t3.5 2.5v-8q0 -5 5 -5q2 0 5 3t5 7l1 3q3 0 3 -8h4q2 0 7 10zM292 472v-8q0 -14 -6 -16l-8 -1q-5 0 -7 1q-2 -8 -8 -8q-10 0 -10 7v7q0 9 1.5 14t5.5 4v-9q0 -4 3 -4t5 1.5t4 6
t3 5.5q3 1 3.5 -1.5t-0.5 -6.5q2 -1 5 0q2 0 3.5 2.5t1.5 5.5l1 2q3 0 3 -2zM338 352v-25v-9q0 -12 -6 -44q-4 -8 -14 -20q-7 -9 -23 -19t-24 -18q-1 -1 -10 -21l-8 -19q-11 -28 -15 -29q-3 -3 -9 -3h-15l-56 -5q18 8 24 14l5 4q3 3 6 3l15 10q7 3 25 21q11 11 17 25
q5 20 21 45q3 7 34 29q3 1 14 8l1 8v43v36q0 11 -0.5 32t-0.5 29l6 9q8 12 13 24v-128z" />
    <glyph glyph-name="braceleft" unicode="{" horiz-adv-x="400" 
d="M259 -199l-5 -17q-63 9 -99.5 48t-36.5 95q0 48 38 121q38 74 38 99q0 32 -22 54q-19 22 -63 28l6 21q47 4 83.5 30t53.5 62q14 30 14 91q0 57 31 118q26 52 87 92q62 42 131 51l-5 -17q-54 -12 -89 -39q-34 -25 -50 -63q-15 -32 -15 -89q0 -60 -21 -102q-16 -40 -64 -80
q-43 -40 -118 -63q100 -43 100 -134q0 -43 -38 -114q-38 -73 -38 -104q0 -32 19 -53t63 -35z" />
    <glyph glyph-name="bar" unicode="|" horiz-adv-x="275" 
d="M79 694h40v-910h-40v910z" />
    <glyph glyph-name="braceright" unicode="}" horiz-adv-x="400" 
d="M222 677l6 17q62 -9 98.5 -48t36.5 -94q0 -49 -38 -120t-38 -100q0 -70 85 -82l-6 -21q-46 -4 -83.5 -30.5t-53.5 -61.5q-14 -30 -14 -91q0 -58 -31 -119q-28 -51 -87 -91q-62 -42 -131 -52l6 17q106 28 138 102q15 35 15 90q0 57 18 97q47 102 185 148q-99 43 -99 134
q0 45 37 115q38 71 38 102q0 34 -19 55t-63 33z" />
    <glyph glyph-name="guillemotleft" unicode="&#xab;" horiz-adv-x="600" 
d="M552 21q0 -21 -21 -21q-9 0 -21 12l-219 200l219 200q12 12 21 12q21 0 21 -21q0 -7 -11 -20l-153 -171l153 -170q11 -14 11 -21zM323 21q0 -21 -21 -21q-9 0 -21 12l-219 200l219 200q12 12 21 12q21 0 21 -21q0 -6 -11 -20l-153 -171l153 -170q11 -14 11 -21z" />
    <glyph glyph-name="uni00B7" unicode="&#xb7;" horiz-adv-x="364" 
d="M276 269q0 -33 -26 -58t-59 -25q-25 0 -43 18t-18 43q0 33 27 59q28 26 60 26q25 0 42 -18t17 -45z" />
    <glyph glyph-name="guillemotright" unicode="&#xbb;" horiz-adv-x="600" 
d="M294 412l219 -200l-219 -200q-12 -12 -22 -12q-20 0 -20 21q0 7 11 21l153 170l-153 171q-11 13 -11 20q0 21 20 21q8 0 22 -12zM64 412l220 -200l-220 -200q-12 -12 -21 -12q-20 0 -20 21q0 7 11 21l153 170l-153 171q-11 13 -11 20q0 21 20 21q9 0 21 -12z" />
    <glyph glyph-name="multiply" unicode="&#xd7;" horiz-adv-x="1019" 
d="M979 228q-1 -3 -4 -9q-6 -10 -9 -10l-7 -6q-22 -16 -24 -18q-4 -3 -9 -6.5t-12 -7.5t-11 -6q-16 -9 -19 -9l-50 -31q-14 -2 -24 -9q-6 -2 -13 -5t-9 -4q-19 -6 -26 -10q-11 -6 -24 -6t-28 9q-2 2 -3.5 4t-3.5 4.5t-4 4.5q-5 8 -5 12q0 3 1 4q0 5 2 7q0 9 1 10t1 3t11 7
q2 4 12 4q3 0 6 -3q6 -4 7 -8q4 -4 11 -4h5h8q13 7 19 8l5 3q20 7 36 16q6 3 12.5 4t7.5 2q14 8 16 10q6 6 14 10l6 3q1 0 33 19q1 1 13.5 9t17.5 15q0 1 4 2q2 1 3 1q2 2 10 2q7 0 10 -3q9 0 9 -9q3 -3 3 -7zM991 444l-8 -15l-4 -3q-4 -3 -4 -4q-2 -3 -6.5 -4.5t-5.5 -3.5
l-3 -1q-4 -1 -8 -4l-17 -13l-17 -10l-27 -20l-25 -12q-5 -4 -10 -6t-11 -4t-10 -4q-5 -11 -28 -11q-3 -4 -9 -4q-8 0 -10 4q-6 1 -6 11q-4 5 -4 10q0 4 2.5 9t2.5 7q3 0 6 1.5t5 1.5q0 3 5 5q3 1 4 2l27 14l22 8l14 7l16 9l26 15l19 12q0 3 8 6q0 2 2 3.5t2 3.5l17 6
q3 3 10 3q12 0 17 -3l3 -10zM619 201l-2 2q-2 3 -4 5h-7h-13q-2 -3 -12 -3q-2 -3 -6 -4.5t-5 -2.5q-2 0 -5 -2.5t-4 -2.5q0 -1 -0.5 -3t-0.5 -3l-2 -2l-4 -4l-3 -3t-1 -2q-6 -6 0 -11l3 -2q1 0 2.5 -0.5t2.5 -0.5q6 -3 6 0l4 1l2 2l23 11q5 2 9 9q7 0 7 8q3 0 7 4q0 1 1 2z
M667 208v-10l-6 -13q-7 -13 -12 -20q-1 -1 -3 -2.5t-5 -3t-6 -3.5q-10 -5 -26 -20l-32 -20l-31 -16l-25 -19q-3 -1 -10 -3.5t-12 -5.5q-17 -10 -29 -12q-13 -8 -20 -8q-6 -7 -17 -7t-20 11q0 2 -1.5 3t-3.5 1t-3 1v8q-1 1 -3 4v3q-3 2 -5 6l-1 3q1 1 1 12q0 3 5 7l1 2
q0 1 1 1.5t1 1.5q2 0 5 2l4 2l2 2q1 0 2.5 0.5t2.5 0.5h2l2 -1l4 -2h1q1 0 2 -1t2 -2.5t3 -2.5q3 -1 6.5 -4t6.5 -3q7 0 11 4q4 0 9 3q9 0 23 9q9 8 20 9l5 4l-5 7q-8 8 -8 17q-3 5 -3 16q1 2 2 5.5t1 4.5v2q2 3 3.5 8.5t4.5 8.5q0 2 3 8l2 2q2 1 6 5.5t7 6.5q5 7 15 9
q3 3 6.5 4.5t5.5 3.5q2 0 6.5 3.5t8.5 3.5q5 2 13 2q4 3 13 3h7h7q5 0 33 -5q1 -3 3 -5.5t5 -5t4 -4.5q1 0 7 -12q2 -5 2 -9zM531 -93q-23 -20 -69 -43q-4 -3 -48 -25l-4 -2q-3 -2 -5 -2t-3.5 -1.5t-4.5 -1.5l-5 2q-4 1 -6 1q0 1 -8 9v7v9q0 3 8 14q2 2 6 3q2 1 4 3
q28 10 57 27q44 22 52 32q4 2 16 2q6 0 10 -2l3 -3v-2q8 -1 2 -14zM545 -3l-11 -17l-22 -14q-31 -19 -42 -25q-46 -19 -53 -21l-2 -3l-3 -1h-4q-3 -4 -6 -4q-12 0 -16 13q-4 0 -4 7v7q0 1 1 2t3 3.5t3 3.5q10 10 13 10q24 12 42 18q52 25 65 40q8 7 19 7q3 0 14 -7v-2
q0 -2 3 -5v-12zM346 244v-7l-4 -7q-2 -6 -9 -10q-1 -1 -5 -3q-11 -5 -43 -12l-29 -20l16 -7l8 -1q2 -1 5 -1q7 0 7 -7q1 0 1 -2v-2v-3q0 -11 -1 -13q0 -1 -1 -2.5t-2 -2.5q-1 -2 -1 -4q-2 -3 -5 -3l-1 -1q-5 -3 -10 -3q-1 0 -5 -2l-1 -2q-3 0 -9 2t-11 2q-14 7 -18 12l-18 8
l-6 -4l-20 -13l-16 -11l-23 -9l-28 -16q-9 -3 -24 -12q-3 -5 -18 -10l-23 -9q-13 -8 -16 -8q-11 0 -24 8q-9 5 -9 9q-2 4 -6 8l-4 5q0 3 -1 7t-1 6q2 3 2 5q0 3 1.5 4.5t1.5 2.5l7 9q3 0 3 1l6 3h11q1 -1 10 -5q0 -2 1.5 -3.5t1.5 -4.5q4 -3 8 -3t8 3l5 3q8 4 11 5l45 25
l43 20l12 9l-2 2q-4 4 -4 5l-2 2q-1 1 -1 6q0 3 -1.5 6t-1.5 6t3 4q0 11 6 11l4 6l3 2q3 1 12 1h9q12 -2 15 -4l5 -11l31 15l31 20l17 7q20 6 32 6q6 0 13 -2l2 -3q1 -1 7 -4v-9zM285 450l-8 -25q0 -1 -3 -7q-2 -3 -8 -9q-9 -13 -20 -16q-2 -10 -18 -20l-20 -16
q-14 0 -24 -11l-25 -16q-2 0 -7.5 -0.5t-7.5 -0.5q-4 -4 -15 -4h-4q-3 0 -8 12q-4 2 -4 13v7q0 2 1 3l3 3l3 3q1 0 2 1q2 0 3 2q2 0 5.5 2t5.5 2q7 2 17 4l9 1q2 0 10 7q3 4 5 5q3 2 6 3.5l5 2.5q2 0 6 4l3 2q19 10 27 16q10 14 13 20l-5 3q-7 -3 -22 -3q-5 -4 -19 -4
q-1 0 -3 -1.5t-5 -3.5l-6 -4q-2 -3 -9 -3h-9q-1 0 -3.5 1t-3.5 1l-4 1q-3 3 -3 13q-1 2 -1 9q0 9 1 11q0 1 11 5q3 2 6.5 3.5t5.5 2.5q11 8 16 8q7 0 13 5h23q5 0 14 -2.5t12 -2.5q3 -1 11 -2.5t10.5 -3t4.5 -5.5q6 -1 10 -9q2 -4 3 -7z" />
    <glyph glyph-name="tilde" unicode="&#x2dc;" horiz-adv-x="287" 
d="M271 359h11q1 -44 -19 -70t-49 -26q-28 0 -63 22q-40 26 -43 27q-8 2 -14 2q-15 0 -23 -10t-12 -40h-12q2 49 21 72.5t48 23.5q28 0 66 -26q38 -25 53 -25q13 0 21 9q12 14 15 41z" />
    <glyph glyph-name="afii57388" unicode="&#x60c;" horiz-adv-x="185" 
d="M149 265l2 -6q-2 -5 -5 -6l-12 -6l-17 -12q-32 -23 -32 -49q0 -20 17 -28l18 -7q29 -11 29 -38q0 -15 -11 -28q-14 -12 -27 -12q-27 0 -48 28q-17 23 -17 53q0 16 5 34q14 50 71 82l11 6l6 1q5 0 6 -4z" />
    <glyph glyph-name="afii57403" unicode="&#x61b;" horiz-adv-x="185" 
d="M152 395l1 -6q0 -2 -1 -3l-4 -3q-4 -1 -12 -6l-17 -11q-32 -23 -32 -51q0 -19 17 -27l18 -7q30 -11 30 -38q0 -15 -12.5 -27.5t-26.5 -12.5q-27 0 -48 27q-17 23 -17 54q0 68 53 101l23 14l11 7l6 2l4 -2l2 -3zM146 43q0 -17 -13.5 -30t-30.5 -13q-18 0 -31 12.5
t-13 30.5q0 19 12.5 31.5t31.5 12.5q18 0 31 -12.5t13 -31.5z" />
    <glyph glyph-name="afii57407" unicode="&#x61f;" horiz-adv-x="500" 
d="M487 564q-4 -20 -18 -32t-32 -12t-27.5 12t-5.5 27q9 21 15 28q9 16 13 27q3 14 -9 24q-26 17 -65 17q-42 0 -75.5 -26.5t-40.5 -65.5q-3 -15 -3 -30q0 -55 68 -148q53 -71 65 -115q8 -24 8 -77v-30h-19q0 65 -22 108q-23 41 -89 95q-67 55 -87 97q-9 20 -9 41q0 12 5 35
q11 54 66 96q56 42 130 42t106 -35q28 -28 28 -62q0 -2 -2 -16zM412 34q-4 -20 -21.5 -34.5t-37.5 -14.5q-21 0 -33 15q-8 11 -8 24q0 3 2 19q3 13 21.5 27t38.5 14t32 -15q8 -11 8 -21z" />
    <glyph glyph-name="uni0780" unicode="&#x780;" horiz-adv-x="542" 
d="M554 261q-2 -19 -26 -41q-28 -24 -58 -42q-25 -17 -56 -35l-40 -24l-98 -53q-13 -5 -57.5 -26t-73.5 -31t-57 -12q-31 0 -54 17q-10 7 -20 23.5t-10 27.5q0 24 11 43q3 6 19 13t28 7q6 -2 25 -19q11 -11 27 -11q9 0 18 3q13 6 25 10.5t17.5 7t6.5 2.5q30 12 73 33
q36 17 67 36q19 10 35 18q2 1 8.5 5.5t23.5 15t32 20.5q34 19 62 41q13 13 31 13q11 0 24 -5q11 -3 14 -16q5 -8 3 -21z" />
    <glyph glyph-name="uni0781" unicode="&#x781;" horiz-adv-x="553" 
d="M562 268q-1 -23 -27 -50q-14 -14 -20 -18q-16 -12 -26 -16q-27 -14 -54 -20q-48 -8 -67 -8h-54q-18 -18 -35 -33q-13 -11 -24 -22q-14 -10 -19 -14q-27 -20 -31 -23l-62 -40q-29 -16 -36 -21q-9 -5 -35 -18q-11 -5 -25.5 -12.5t-23.5 -11.5l-39 -15q-15 -7 -35 -7
q-11 0 -25 9q-18 8 -33 32q-9 14 -9 19q-2 4 -2 10q0 9 6 19q16 27 37 27q14 0 29.5 -9t25.5 -8q10 -1 24 5q20 8 47 24l54 29q7 4 19 12q5 4 9 7.5t7 4.5l2 2q12 8 18 13q22 17 29 22q21 16 23 20q-6 8 -9 13q-8 13 -8 18q0 40 32 61q4 2 17 12q16 10 43 10q20 0 31 -10
q19 -13 24 -34l33 1q27 0 46 4q29 7 60 30q8 14 10 16q13 10 34 10q5 0 15 -3q24 -9 24 -37z" />
    <glyph glyph-name="uni0782" unicode="&#x782;" horiz-adv-x="663" 
d="M651 272q6 -32 -57 -95q-12 -12 -26 -19q-23 -13 -29 -15q-39 -20 -64 -20q-7 0 -10 1q-34 7 -48 25q-3 2 -5.5 4.5t-4.5 5t-3 3.5q-8 10 -9 15l-25 -8q-13 -6 -41 -7q-19 -1 -37 -1l-26 -26q-2 -2 -39 -31q-12 -10 -26 -21t-16 -13q-5 -3 -12 -7.5t-17.5 -12
t-18.5 -12.5q-59 -41 -133 -72q-22 -9 -48 -18q-20 -6 -41 -6q-43 0 -64 35q-3 6 -14 17q-15 15 -16 25q0 21 15 42q4 5 22.5 10t29.5 5q7 -2 20 -14l16 -16q16 -12 31 -10q26 5 94 46q30 17 50 32q14 10 41 28q15 9 33 26l21 21q-15 8 -18 12q-5 12 -5 26q1 5 1 12
q1 21 20 38q10 9 29 16q13 7 31 7q25 0 44 -10q9 -7 20 -31l4 -12q11 0 29 2q15 3 20.5 6.5t18.5 16.5q10 10 16 15t12.5 8t8 3t10.5 2q12 0 18 -2q27 -12 27 -25q0 -4 1 -19t2.5 -22t5.5 -7q15 -2 27 4t24 18.5t13 13.5q5 6 11.5 14t8.5 10q11 13 17.5 15.5t19.5 2.5
q16 0 21 -4q15 -8 20 -27z" />
    <glyph glyph-name="uni0783" unicode="&#x783;" horiz-adv-x="618" 
d="M605 281q-5 -18 -19 -29l-18 -9q-15 -5 -42.5 -15t-34.5 -13l-63 -34l34 -11q33 -8 39 -14q3 -3 6 -9q5 -7 5 -16q0 -12 -6 -22q-8 -12 -11 -15q-21 -18 -49 -18t-68 22l-35 19l-17 -9l-29 -18l-37 -22l-43 -24l-54 -31q-22 -14 -43 -24q-2 -1 -7.5 -3.5t-15 -7
t-18.5 -9.5l-38 -18q-30 -12 -39 -12q-27 0 -43 13q-13 9 -16 22q-23 32 -23 43q9 26 10 28l14 21q3 3 15.5 5t19.5 1q8 -3 18 -14q3 -5 9 -13q11 -5 17 -4q11 0 39 15l91 48l80 46l29 17q-26 21 -26 47q0 9 1 12q8 25 34 38q11 6 22 6q25 0 40 -15l17 -19l63 36l57 29
l31 12q41 19 63 19q11 0 24 -7q19 -8 19 -35q0 -1 -2 -9z" />
    <glyph glyph-name="uni0784" unicode="&#x784;" horiz-adv-x="559" 
d="M558 272q11 -17 11 -32q0 -22 -13 -52q-6 -18 -32.5 -47t-56.5 -50q-25 -19 -51 -33q-100 -49 -180 -49h-12q-48 0 -72 6q-34 9 -52 27q-17 17 -28 52q-1 5 -1 22v12q1 2 2 11.5t3 16.5t7 19.5t13 24.5q17 24 47 46q65 48 118 48l25 -1q22 -4 37 -15q3 -4 15 -19l18 18
q21 15 52 28q38 9 60 9q23 0 50 -11t40 -31zM480 221q1 4 -2 6t-10 2q-13 0 -29 -4q-13 -2 -29 -13q-3 -2 -23 -15q-17 -9 -47 -33l-19 -19l-42 -47q40 8 46 11q7 3 37 18l41 21q9 5 28 21q25 19 37 34q10 11 12 18zM276 204q3 1 7 5h-18q-28 -4 -57 -22q-25 -17 -35 -27
q-14 -14 -14 -27q0 -23 28 -32q3 3 9 10.5t16.5 19.5t19.5 23q35 42 44 50z" />
    <glyph glyph-name="uni0785" unicode="&#x785;" horiz-adv-x="547" 
d="M545 230q0 -12 -16 -28q-11 -7 -13 -9q-6 -4 -13 -8.5t-10 -6.5t-4 -2l-27 -17q-14 -12 -75 -48l-69 -38l-65 -35q-51 -26 -74 -35q-63 -29 -78 -29q-26 0 -53 20q-9 8 -19.5 23t-10.5 23q0 25 4 33q5 13 19 21.5t23 8.5q8 0 16 -3l15 -11q7 -7 13 -9q14 -6 23 -3
q19 5 46 19l47 24l30 18l40 22l39 21q-19 9 -36 32q-6 9 -9 28v26q0 8 5 23q1 0 14 23q9 19 34 39q5 4 9.5 7.5t7.5 4.5l2 2q10 6 19 6q34 0 46 -27q3 -9 3 -16q0 -9 -5 -17q-3 -9 -8.5 -14.5t-14.5 -9.5l-8 -5q-12 -7 -12 -17q0 -4 3 -7t7 -5.5t5 -3.5q13 -10 24 -10
q19 0 30 8q6 6 30 25q13 5 30 5q6 0 12 -3l1 -1q16 -5 20 -21q1 -2 1.5 -6t1 -9.5t0.5 -7.5z" />
    <glyph glyph-name="uni0786" unicode="&#x786;" horiz-adv-x="565" 
d="M567 247l-12 -22l-16 -13l-40 -29l-50 -34l-47 -32l-49 -29q-9 -5 -21 -12t-13 -7q-23 -13 -32 -17q-45 -24 -97 -30q-33 0 -44 10q-11 8 -16 26l1 17q2 9 7 18q1 1 9 13l20 20l18 22l12 21q2 5 7.5 20.5t7.5 19.5q8 48 12 57q7 15 19 24l21 10q2 0 5 1l5 1l10 -2
q17 -1 26 -15t9 -23q0 -1 -0.5 -2.5t-1 -4.5t-0.5 -6l-3 -26l-17 -43l-16 -34q-4 -10 -7 -10q0 4 1 6q-2 -1 -5 -1l2 1q2 2 6 4.5t7 4.5l63 36q9 5 21 12t13 7q15 8 31 21l38 28l38 29l19 14q8 6 20 6q12 2 20 -3q5 -2 9 -7q14 -11 14 -32q0 -8 -4 -15z" />
    <glyph glyph-name="uni0787" unicode="&#x787;" horiz-adv-x="559" 
d="M561 207q-1 -14 -9 -31l-13 -34l-17 -30l-14 -24q-1 -3 -3.5 -7t-6 -9.5t-6.5 -10.5q-12 -21 -23 -34q-28 -35 -33 -40q-6 -6 -11 -7l-17 -6q-3 -1 -12 -1q-4 0 -10 2q-6 0 -14 5q-8 7 -13 12q-4 7 -4 23q2 13 12 29q21 27 29 37q12 15 29 39q3 5 13.5 20.5t15.5 25.5
l12 25l3 2q-18 -5 -24 -10q-1 -1 -10 -8.5t-13 -11.5l-53 -43l-48 -37q-3 -3 -29 -21q-28 -20 -30 -21q-41 -25 -83 -47q-29 -17 -59 -27q-15 -3 -30 -1q-7 1 -14 4.5t-13 7.5t-7 5q-10 8 -15 17q-1 4 -4.5 13.5t-6 16t-2.5 8.5q10 34 22 44q17 15 36 10q2 0 21 -15
q10 -7 15 -7h5.5t5.5 0.5t5.5 1.5t8 3t10 4.5t14.5 7.5t19 11q11 8 28 18.5t19 12.5q15 8 26 17q21 17 24 19l34 27l34 27q10 12 33 28l33 28q23 19 39 24q7 4 28 4h18q16 -1 25 -9q13 -10 19.5 -19.5t7 -13.5t1.5 -14q3 -13 3 -27q0 -10 -1 -13z" />
    <glyph glyph-name="uni0788" unicode="&#x788;" horiz-adv-x="560" 
d="M562 204q-4 -29 -37 -62q-25 -25 -73 -55l-65 -43l-55 -34l-49 -29q-41 -24 -105 -51q-47 -20 -68 -20q-29 0 -45 16q-15 17 -16 24q-6 15 -7 18q-7 15 -7 20q2 20 9.5 31.5t26.5 20.5q4 4 12 4q3 0 23 -5q2 0 15 -12t18 -12q21 1 31 4.5t53 24.5l36 21l16 9l-16 14
q-20 24 -15 59q1 5 1.5 9.5t1.5 7.5t1.5 5.5t0.5 4.5v1q5 26 26 47q10 13 28 27q19 18 34 25.5t47 17.5q14 4 20 6q14 6 41 6h11q32 0 59 -15q20 -14 29.5 -23t15.5 -23q3 -9 3 -21q0 -10 -1 -18zM470 210q-6 10 -31 10t-42 -8q-36 -17 -49 -30q-8 -8 -15 -21q-7 -10 1 -19
q1 -1 17 -11q5 -1 8 0t10 5.5t10 5.5l38 21q15 8 36 29q3 3 7 6t5.5 4t3.5 3t1.5 2.5t-0.5 2.5z" />
    <glyph glyph-name="uni0789" unicode="&#x789;" horiz-adv-x="570" 
d="M576 230q-3 -28 -51 -75l-25 -23q-7 -6 -32 -25l-36 -26l-46 -27q-68 -42 -129 -69q-17 -9 -79 -34q-22 -9 -35 -9q-5 -1 -14 -1q-12 0 -20 4q-12 3 -31 25q-12 21 -13 24q-12 22 -10 29q8 22 22 39q8 8 27 8h10q3 -1 7 -3q3 0 13 -13t16 -13q18 0 33 5l53 25l45 23
l51 30q5 3 15.5 9t16.5 9l37 23l35 25q17 10 22 18q-24 3 -37 3h-14q-9 -1 -14.5 -1t-11.5 -0.5t-9.5 -1t-7 -0.5t-7 -1t-5.5 -1.5l-6 -1.5t-6.5 -2t-8 -3t-9.5 -3q-2 -2 -4 -2q-15 -5 -25 -5q-8 0 -10 1q-14 5 -20 16q-8 10 -8 27q7 26 13 32q19 12 49 26q8 3 23 6
q54 7 76 7l54 -4q9 -1 55 -12q52 -16 52 -50q-1 -3 -1 -8z" />
    <glyph glyph-name="uni078A" unicode="&#x78a;" horiz-adv-x="552" 
d="M555 340v-16q-3 -14 -5 -17.5t-13 -11.5l-23 -13l-13 -7q19 -11 31 -23q17 -17 14 -30q-5 -30 -37 -50l-47 -27q4 -3 7.5 -5.5t5.5 -3.5l2 -2q6 -6 6 -11q4 -8 4 -16q0 -13 -6.5 -22t-33.5 -33q-18 -16 -36 -30q-16 -13 -26 -18q-7 -4 -27 -21q-5 -5 -26 -19l-30 -19
l-55 -32q-68 -32 -70 -33q-66 -26 -86 -26q-17 0 -36 10q-20 12 -32 31q-7 14 -7 34q0 16 5 26q4 3 9 8q13 13 24 13q25 0 44 -15q9 -3 19 -3q17 0 20 1q17 6 30 11l58 30q46 25 73 44l52 39l17 13l-10 6l-17 27q-6 12 -4 21q0 6 2.5 11t8.5 10t11.5 8.5t17 11t20.5 13.5
l16 9l-18 8q-21 11 -30 22q-10 20 -10 23q1 14 17 32l25 17l32 12q20 15 21 16q2 3 7 8.5t8 7.5l18 10q18 10 35 11q13 -4 24 -15q9 -5 14 -25z" />
    <glyph glyph-name="uni078B" unicode="&#x78b;" horiz-adv-x="571" 
d="M592 355q1 -5 -1 -22q-5 -16 -17 -27q-6 -6 -15 -10l-8 -3l11 -11q12 -24 12 -51q0 -17 -9 -36q-9 -28 -27 -49q-27 -24 -61 -39q-15 -5 -36 -13q-13 -4 -41 -4q-24 0 -64 5l-33 8l-21 -18q-18 -16 -36 -29q-14 -10 -47 -30q-3 -2 -53 -33q-17 -9 -53 -29l-41 -23
l-30 -14q-31 -14 -51 -14q-17 0 -33 10q-20 9 -37 57q-1 11 -3 31q8 15 18.5 22t32.5 6l16 -8l17 -8.5t14 -6.5q18 5 42 17l44 25l46 27l40 24q13 6 23 14q17 14 44 34q-7 14 -7 26q0 28 12 40q4 3 8.5 7.5t8 7t10.5 4.5q24 8 33 8q2 0 20 -2q29 -9 34 -35v-26l23 -6
q7 -1 34 -1q2 0 27 5l4 1l7 3.5t7.5 4t8 5t7 6.5t5.5 8.5t2 9.5q1 5 -5 15q-6 11 -14 17l-11 7q-9 3 -29 9q-16 9 -24 21q-1 2 -1 14v7.5v7t0.5 5.5t1 5l2 4t4 4.5t6 3.5t7.5 4l20 11q2 1 9 0.5t17.5 -0.5t13.5 1t12.5 4.5t15.5 5.5q26 19 47 16q36 0 41 -30z" />
    <glyph glyph-name="uni078C" unicode="&#x78c;" horiz-adv-x="553" 
d="M559 248q1 -3 1 -16v-14q-8 -43 -15 -60q-5 -11 -32 -44q-12 -13 -28 -25q-32 -25 -81 -25q-37 0 -56 10q-16 6 -21 9q-18 11 -27 21l-24 26q-12 -7 -30 -24l10 -12q12 -16 20 -36q5 -28 5 -33q-4 -26 -19 -45q-10 -12 -27 -25q-3 -2 -31 -19q-8 -4 -35 -16
q-32 -15 -35 -16q-30 -8 -64 -8q-23 0 -34 10q-21 8 -21 27q0 47 25 57q11 7 20 7q2 0 17 -6t26 -4q14 2 23 6q6 3 16.5 7t16.5 7q10 6 28 20q5 7 -6 14t-23 11q-10 4 -15 11q-13 13 -13 27q0 1 0.5 3t1 5.5t0.5 6.5q16 39 34 52q19 15 25 20q28 22 38 29l37 24l46 25
q63 30 89 39q34 10 74 10q73 0 84 -56zM466 212q-2 2 -15 0l-41 -9l-35 -15l-15 -7l15 -12q20 -14 39 -14q18 -1 32 11.5t19 27.5q6 12 1 18z" />
    <glyph glyph-name="uni078D" unicode="&#x78d;" horiz-adv-x="562" 
d="M572 247q-1 -8 -6.5 -16t-10.5 -13t-11 -10l-6 -5q-8 -8 -18 -14q-1 0 -5.5 -2.5t-10 -5.5t-15.5 -8t-21 -10q-7 -3 -37 -20l-61 -35l-66 -40l-35 -22l-59 -32q-34 -20 -53 -28l-34 -16l-45 -18q-25 -11 -33 -11h-13q-10 0 -25.5 5t-17.5 9q-18 13 -19 22q-19 34 -15 40
q2 20 23 35q16 10 28 10q6 0 30 -13q9 -5 17 -7q24 0 48 12l65 34l50 28l53 29l52 32l41 24q-22 0 -41 1q-8 0 -15.5 0.5t-11.5 1t-5 0.5q-14 0 -46 -5q-4 1 -16 5q-23 11 -23 36q0 30 33 49q5 1 12 3l7 1q17 4 38 14q21 9 22 10q31 25 36 33q13 19 39 19q14 0 27 -5
q13 -6 16 -9q16 -16 12 -35q-2 -5 -15 -20q-1 -1 -13 -15h60h54q11 0 22 -8q20 -13 18 -30z" />
    <glyph glyph-name="uni078E" unicode="&#x78e;" horiz-adv-x="560" 
d="M563 282q2 -6 2 -12t-3 -13q-8 -14 -23 -21l-23 -12l-33 -15l-34 -16l-29 -14q-3 -1 -11 -3q1 -1 1.5 -2.5t1.5 -3t1 -2.5l9 -11l14 -21l9 -15l9 -13q3 -12 3 -22q0 -27 -28 -60l-19 -15l-24 -16l-36 -19q-71 -32 -132 -32l-15 -1l-32 -2l-21 1q-64 0 -64 46
q-3 11 9.5 27.5t24.5 21.5l12 4l21 1l29 -1l25 -2q26 0 41 1q35 2 58 9q3 1 9.5 3.5t9 3t7 2.5t6.5 3l5 2.5t4.5 3t4 3.5t4 4t2.5 5q1 7 -9 20l-7 7l-15 15q-24 24 -27 34q-5 14 -2 25q3 8 9 16q6 5 14 13t35 26l21 13q12 6 26 14q17 10 29 15q5 2 15 7t15 7l29 11
q30 11 36 11q17 5 36 -31z" />
    <glyph glyph-name="uni078F" unicode="&#x78f;" horiz-adv-x="616" 
d="M611 258q0 -10 -18 -36q-32 -32 -70 -55q-53 -28 -83 -38q-15 -4 -31 -4q-12 0 -24 5q-19 7 -28 19q-6 8 -11 24l-79 -3q-5 0 -39 -21l-46 -28q-31 -21 -49 -38q-15 -15 -21 -39q-3 -16 6 -26q10 -21 49 -26q43 -5 69 -5l46 2q16 2 30 2q11 0 28.5 -1t18.5 -1
q11 0 24.5 -5t16.5 -9q9 -11 9 -25q3 -22 -11.5 -38.5t-43.5 -16.5q-13 1 -29 1h-22h-21h-19h-16h-15h-10q-12 0 -28 0.5t-21 0.5q-40 0 -77 14q-18 7 -23.5 11t-17.5 18q-17 16 -28 47q-7 15 -7 35q1 5 1 13q0 11 5 28q2 8 11 25q3 7 8 17q4 5 10 13t10 13t8 9l12 12l37 30
l31 29l14 10q0 5 3 31q1 7 8 20l6 13q12 20 66 20q26 -4 37 -13.5t13 -28.5h31q15 27 27 32q16 8 35 8q15 0 26 -9q13 -12 13 -30l-2 -6q-2 -6 -4 -13t-2 -11q0 -10 7 -13q11 -5 32 12q13 7 37 27l32 28q3 2 7.5 5.5t6.5 5.5q11 7 18 7l19 -1q13 -4 21 -14t8 -22
q-1 -5 -1 -11z" />
    <glyph glyph-name="uni0790" unicode="&#x790;" horiz-adv-x="957" 
d="M959 315q0 -13 -4.5 -25t-9.5 -19t-11 -13t-6 -7q-12 -12 -23 -21q-7 -6 -17 -14.5t-17 -14.5t-16 -11q-39 -22 -62 -30q-31 -12 -53 -12h-554l-16 -15q-40 -31 -43 -33q-5 -4 -13 -8.5t-10 -6.5q-41 -23 -66 -23q-16 0 -25 6q-19 7 -19 34q0 9 11 29q1 2 2.5 4t2 3
t2.5 2.5t3 2l4 2l5 2.5t7 3t9 4q24 9 32 17l3 1q-4 2 -11.5 6t-10.5 6q-17 11 -17 34q-1 6 2 26q3 11 11 22q3 5 16 18q29 20 61 20q19 0 38 -7q27 -10 37 -34l2 -6q2 -6 4.5 -14t4.5 -14h493q33 0 56 10q21 5 41 20q25 18 47.5 43t30.5 30q16 15 37 15t28 -10
q14 -12 14 -22z" />
    <glyph glyph-name="uni0791" unicode="&#x791;" horiz-adv-x="567" 
d="M476 -3q0 -15 -8 -29q-4 -6 -7.5 -10t-7 -7t-6 -4.5t-6.5 -2t-6 -0.5h-6h-5q-8 0 -20 2l-41 9q-35 7 -39 7q-20 3 -43 10l-40 14q-13 4 -37 28q-6 18 -6 25q0 13 6 27q4 19 10 26q3 3 11 10q15 12 40 24l35 17l-4 1q-11 3 -21 6t-16 5q-24 8 -36 18q-8 9 -8 35q1 2 1 5
q4 13 13 23q4 5 20 18l22 19q13 13 33.5 24.5t32.5 11.5q11 -7 12 -7q14 -6 19 -17q7 -10 7 -27q0 -12 -15 -23l-18 -15q-5 -4 -7 -6q8 1 17 5q-2 0 -3 1q12 0 20.5 -2t19 -6.5t12.5 -5.5q31 -19 31 -43q0 -26 -28 -49l-21 -16q-6 -4 -18 -11.5t-18 -10.5l-28 -15l57 -12
l53 -11q14 1 32.5 -12.5t14.5 -28.5z" />
    <glyph glyph-name="uni0792" unicode="&#x792;" horiz-adv-x="568" 
d="M571 301q2 -6 2 -13v-9l-3 -5q-5 -13 -15 -23q-31 -16 -63 -29l-34 -17l-39 -17l19 -6q14 -3 18 -7q2 -3 7 -10t8 -11.5t5.5 -12t2.5 -15.5q0 -10 -4 -17q-11 -19 -21 -27q-12 -6 -24 -6q-35 0 -48 6q-29 9 -49 23q-8 6 -17 12l-14 11l-16 -6q-7 -1 -25 -10l-58 -32
q-17 -12 -18 -15l-1 -2q-2 -2 -5 -5.5t-6 -6.5q-13 -16 -19 -40q-3 -8 -2 -11q0 -9 13 -16q24 -24 111 -24h22l48 1l50 6q14 2 30 -10.5t16 -31.5l-5 -21q-6 -22 -34 -31q-17 -4 -47 -4l-50 -1q-6 0 -24 0.5t-31 0.5h-8q-48 0 -96 18q-18 7 -56 34q-3 3 -11 15
q-11 16 -11 17q-7 14 -7 34v13l7 31l7 21q8 21 15 30q5 7 10.5 15t6.5 9q11 10 18 19q23 25 77 56l25 13v16q-1 5 -1 15q0 36 34 49q12 5 30 5q26 0 42 -23l7 -8l46 20l47 23l62 30q13 6 32 11q1 0 7 2q30 0 37 -33z" />
    <glyph glyph-name="uni0793" unicode="&#x793;" horiz-adv-x="573" 
d="M563 212q-2 -21 -26 -51.5t-53 -52.5q-15 -11 -45 -24q-11 -4 -28 -8q-15 -4 -26 -8q-12 -4 -36 -6q-12 -4 -32 -4q-13 0 -24.5 -1t-19.5 -1q-27 0 -52 5l-21 -20q-1 -1 -6.5 -6t-9.5 -9q-6 -5 -16 -18q-8 -17 -7 -19q3 -6 5 -9.5t5.5 -6.5t4.5 -3.5t8 -3.5
q21 -11 57 -11q9 0 25.5 0.5t24.5 0.5h57q14 2 45 2h24q17 4 27 1q13 -4 17.5 -9.5t9.5 -26.5q1 -7 -3 -23q-1 -8 -8.5 -16.5t-19.5 -10.5q-22 -4 -59 -7q-33 0 -50 -1l-54 -1h-16q-30 0 -86 7q-10 0 -19 3t-18 7t-11 5q-13 6 -26 21q-9 8 -11 11q-2 2 -12 18q-3 4 -5 18.5
t-1 21.5q2 16 3 23q8 38 30 62q2 3 26 25l12 11l-9 9q-24 33 -24 64q1 5 1 10q6 47 50 84q29 21 49 30q34 15 50 15q26 0 44 -11q20 -10 29 -25l17 8q10 7 28 15q2 1 14.5 6.5t17.5 7.5t16 5.5t21 5t21 1.5q42 0 64 -20q20 -12 27 -40q5 -8 5 -29q0 -16 -1 -21zM474 233
q-3 5 -10 5q-5 0 -28 -10l-17 -6l-27 -15q-6 -5 -18 -13.5t-18 -12.5q-1 -2 -17 -16q-11 -7 -27 -21q44 0 98 22q18 7 36 19.5t24 22.5q8 18 4 25zM246 195l23 19q0 4 -11 7.5t-17 3.5q-1 0 -24 -10q-10 -7 -13 -27q-2 -11 7 -20q16 9 20 14z" />
    <glyph glyph-name="uni0794" unicode="&#x794;" horiz-adv-x="576" 
d="M595 220q-2 -13 -6 -24q-3 -6 -7 -16q-8 -18 -25 -40q-7 -14 -28 -44q-13 -22 -31.5 -36t-28.5 -14q-21 -2 -32 7q-16 15 -16 34q0 21 20 41l14 17l19 22l17 27l-41 -7l-62 -8q-8 -14 -26 -32l-47 -42l-54 -38l-41 -26l-62 -35l-65 -34q-30 -15 -31 -16q-13 -6 -34 -6
q-18 0 -22 1t-13 7q-21 12 -36 34q-11 14 -11 19q0 7 4 18q1 2 1.5 5.5t1 4.5t1 3.5t1.5 3.5l3 3t4 3.5t5.5 4t8.5 4.5q8 5 15 7q12 3 36 -11q14 -12 25 -9q17 4 35 15l38 21l33 19l53 30q23 16 64 47q12 8 13 12l-11 10q-11 11 -11 28q-1 5 -1 11v1q0 1 0.5 2.5t1 4
t0.5 4.5q6 14 11 21q9 12 14 17q26 22 48 22h11q16 0 29.5 -8.5t18.5 -19.5l8 -13l38 6l61 14q35 11 54 11q12 0 20 -8q0 -1 13 -24q4 -7 4 -27q0 -12 -2 -24z" />
    <glyph glyph-name="uni0795" unicode="&#x795;" horiz-adv-x="565" 
d="M552 -28q-1 -11 -6 -19q-8 -12 -23 -23q-10 -7 -26 -7q-17 0 -24 3q-12 5 -16.5 20.5t-3.5 24.5q0 12 8 26q5 14 23 22q13 6 26 6q18 3 32.5 -13t10.5 -29q-1 -5 -1 -11zM560 340v-16q-3 -14 -5 -17.5t-13 -11.5l-23 -13l-12 -7q19 -12 30 -23q17 -16 15 -30
q-5 -29 -38 -50l-46 -27l14 -11q7 -6 7 -11q3 -9 3 -16q0 -14 -6 -22t-34 -33q-18 -16 -36 -30q-14 -11 -25 -18q-7 -4 -27 -21q-6 -5 -27 -19l-30 -19l-55 -32q-36 -19 -70 -33q-6 -2 -19 -8t-20 -8q-32 -13 -48 -13q-13 0 -35 13q-8 5 -18 15t-13 16q-8 18 -8 33
q0 26 24 43l27 10q4 1 17 -8q2 -2 8 -6t9 -7q11 -11 17 -9l49 19l58 30q50 27 73 44l52 39l18 13l-9 6q-11 11 -17 26t-4 22q0 14 14 25q12 11 15 12q10 5 30 17l15 9l-18 8q-22 13 -30 22q-10 20 -10 23q4 17 17 32l26 17l31 12q20 15 21 16q2 3 7 8.5t8 7.5l19 10
q16 10 34 11q14 -4 24 -15q9 -5 14 -25z" />
    <glyph glyph-name="uni0796" unicode="&#x796;" horiz-adv-x="570" 
d="M559 338l-1 -17q-2 -13 -12 -24l-10 -10l9 -15q9 -10 9 -35v-24q-1 -4 -1 -12q-4 -9 -7 -18q-8 -24 -23 -42q-5 -8 -16 -18q-2 -1 -3.5 -3t-3.5 -4l-3 -3q-20 -15 -42 -22q-43 -17 -80 -17q-5 1 -14 1q-62 9 -67 10l-10 2q0 -1 -8.5 -6.5t-9.5 -5.5l-20 -14l-26 -19
l-29 -22q-14 -13 -15 -20q-7 -24 15 -34q27 -10 69 -10h31h21q20 3 37 3h19q4 1 13 1h19l31 3q19 0 22 -1q25 -11 25 -36q0 -28 -12 -38q-7 -6 -15.5 -9t-14.5 -3.5t-16.5 -1t-16.5 -1.5l-51 -3q-24 0 -32 -1q-32 -2 -61 -2h-12q-52 0 -79 8q-31 10 -50 25q-17 15 -25 30
t-9.5 23t-2.5 30q2 37 15 60l21 28l21 18l32 24l38 25q-2 23 -1 25q1 23 12 32q14 12 15 13q8 8 17 11t23 3.5t15 0.5q21 0 30 -5q17 -4 24 -27l5 -22q11 -4 30 -4q5 -1 14 1l10 1q60 13 60 49q0 20 -13 21q-4 1 -28 -1q-13 -1 -21 -1q-19 0 -29.5 11.5t-10.5 28.5q0 1 1 6
t2 9t6 11t13 14q13 11 43.5 16.5t41.5 11.5q1 0 19 17q7 6 13 8q15 4 22 4q16 -2 26 -12l4 -4l2 -3q6 -7 6 -15z" />
    <glyph glyph-name="uni0797" unicode="&#x797;" horiz-adv-x="577" 
d="M777 510q8 -30 -16 -49q-12 -8 -17 -12q-1 -1 -6.5 -6t-13.5 -10t-25 -14l-60 -34l-79 -48l-80 -50l9 -10q11 -12 14.5 -17t6.5 -14t3 -23q0 -45 -22 -69l-2 -2q-2 -3 -6.5 -7.5t-8.5 -9.5q-48 -43 -111 -50l-42 3q-29 4 -62 37q-6 6 -11 15q-2 2 -8 12l-33 -19
q33 -44 33 -85q-3 -31 -10 -42q-6 -13 -27 -32q-17 -17 -54 -38q-18 -11 -54 -21l-33 -7q-3 0 -7.5 -0.5t-7 -1t-3.5 -0.5q-24 0 -44 15q-15 11 -15 29q1 4 1.5 10.5t2 12t5.5 12.5q7 11 10.5 15.5t15 9t29.5 4.5q5 0 16.5 -2.5t15.5 -2.5q35 0 58 29q7 8 6 18q-1 6 -11 14
q-25 19 -25 21q-8 18 -8 29q0 18 9 35q14 23 54 52q20 15 23 16q14 10 43 26l53 32q56 28 85 43q36 19 55 31q10 6 29.5 18.5t25.5 16.5q9 7 46 29l45 27l65 38q26 14 42 25q10 7 42 27q8 4 16 4q16 0 27 -9q6 -4 9 -5q2 -3 7 -16zM417 210q2 9 -6.5 16t-19.5 7
q-17 0 -36 -10t-34 -21q17 -23 38 -25q9 -3 19 0q17 3 27.5 12.5t11.5 20.5z" />
    <glyph glyph-name="uni0798" unicode="&#x798;" horiz-adv-x="578" 
d="M460 418q-4 -21 -19 -34q-14 -14 -35 -17q-16 0 -34 15q-11 15 -11 37q0 17 19 33q15 17 35 17t32 -16q13 -13 13 -35zM500 314q0 -18 -16.5 -33t-37.5 -18q-14 0 -34 15q-10 13 -10 37q0 15 18 33q17 17 36 17q20 0 32 -16q12 -15 12 -35zM384 315q0 -18 -17 -33
t-36 -18q-15 0 -35 15q-10 13 -10 38q5 17 18 32q17 17 36 17q20 0 32 -16q12 -12 12 -35zM563 195q1 -3 1 -16v-14q-1 -4 -2.5 -15.5t-4.5 -20.5q-2 -15 -15 -37t-22 -29q-13 -16 -32 -27q-37 -27 -80 -27q-26 0 -56 14q-31 13 -46 31q-2 2 -5.5 7l-7 10t-4.5 6
q-13 -5 -15 -7q-4 -3 -29 -23l10 -5q30 -18 39 -30q8 -13 8 -34q-5 -26 -25 -47q-16 -18 -34 -29q-7 -7 -34 -19l-49 -19q-10 -6 -38 -13l-24 -5q-26 -6 -40 -6q-11 1 -26 7q-7 2 -12 4.5t-8.5 4.5t-5.5 5.5t-3.5 5t-2 5t-0.5 4.5v5v4q0 13 1 16q0 23 11 34q7 7 30 15
q26 0 31 -1q1 0 16.5 -5.5t19.5 -5.5q19 0 28 -1q29 0 46 16q14 12 15 21q1 6 -3 9t-18 10l-24 9q-26 11 -26 36q0 9 1 12q0 12 25 37l42 37l39 30l36 23l46 25q63 30 89 39q34 10 75 10q72 0 83 -56zM465 123l3 14q2 9 -3 14q-3 6 -14 8l-12 1q-44 -13 -45 -13
q-1 -1 -14 -9l-17 -12l15 -13q23 -18 45 -18q29 0 42 28z" />
    <glyph glyph-name="uni0799" unicode="&#x799;" horiz-adv-x="568" 
d="M492 76q-6 -22 -19 -34q-16 -14 -36 -17q-16 0 -34 15q-10 14 -10 37q0 16 18 33q17 17 34 17q24 0 34 -16q13 -13 13 -35zM569 261q-9 -27 -26 -41q-23 -20 -58 -42q-25 -17 -56 -35q-31 -19 -39 -24l-98 -53q-15 -6 -46 -20.5t-50 -23t-45 -16.5t-47 -9q-30 0 -55 17
q-9 7 -19 23.5t-10 27.5q0 25 10 43q4 6 20 13t28 7q7 -2 25 -19q10 -11 26 -11q11 0 18 3q13 6 25 10.5t17.5 7t6.5 2.5q36 15 74 33q31 15 66 36q32 16 35 18q2 1 9.5 6t23.5 14.5t32 20.5q34 19 62 41q9 13 30 13q12 0 25 -5q10 -3 13 -16q4 -8 3 -21z" />
    <glyph glyph-name="uni079A" unicode="&#x79a;" horiz-adv-x="575" 
d="M492 385q0 -17 -18 -34q-16 -14 -36 -17q-14 0 -34 15q-10 13 -10 37q0 15 18 33q17 17 36 17q21 0 31 -16q13 -13 13 -35zM575 261q-2 -19 -26 -41q-28 -24 -58 -42q-25 -17 -56 -35l-40 -24l-98 -53q-13 -5 -57.5 -26t-73.5 -31t-57 -12q-31 0 -54 17q-10 7 -20 23.5
t-10 27.5q0 24 11 43q3 6 19 13t28 7q6 -2 25 -19q11 -11 27 -11q9 0 18 3q13 6 25 10.5t17.5 7t6.5 2.5q30 12 73 33q36 17 67 36q19 10 35 18q2 1 8.5 5.5t23.5 15t32 20.5q34 19 62 41q13 13 31 13q11 0 24 -5q11 -3 14 -16q4 -8 3 -21z" />
    <glyph glyph-name="uni079B" unicode="&#x79b;" horiz-adv-x="588" 
d="M546 414q0 -20 -23 -41q-14 -13 -38 -13q-31 0 -45 14q-12 18 -12 43q4 20 23.5 39.5t41.5 19.5q26 0 39 -19q14 -13 14 -43zM595 291q1 -3 -2 -27q-3 -22 -18 -29l-24 -9l-7 -3l9 -9q10 -10 12.5 -19t2.5 -34q-3 -22 -10 -35q-7 -28 -28 -50q-14 -17 -69 -42
q-27 -13 -77 -13q-3 1 -23.5 3t-32.5 7.5t-20 16.5q0 2 -1 7t-2 7l6 -19l-10 -5q-22 -14 -28 -19q-12 -13 -80 -62q-9 -6 -26 -16.5t-26 -15.5q-6 -5 -33 -18q-8 -5 -21 -12l-42 -24l-27 -18q-34 -20 -54 -20q-22 0 -37 11q-4 3 -19 15q-14 11 -15 18q-12 29 -12 37
q2 4 4 12q4 12 14 22q4 2 20.5 6t20.5 3q10 -5 23 -13q12 -7 19 -3q39 13 51 19l44 23q12 5 50 28l42 26q23 13 26 16q9 7 16.5 15t11.5 11q12 9 14 11q-10 16 -10 30q-4 29 20.5 52.5t45.5 20.5q2 0 20 -2l20 -7q13 -8 21 -36v-22l15 -11q10 -7 34 -7q11 0 27 7q18 8 30 19
q10 12 12 20q3 9 -3.5 18.5t-15.5 13.5l-11 8l-23 12q-34 20 -30 48q0 14 19 23l20 11q2 2 19 0q14 -1 23 1q9 3 30 16q25 19 47 19q41 0 48 -33z" />
    <glyph glyph-name="uni079C" unicode="&#x79c;" horiz-adv-x="636" 
d="M483 384q0 -17 -19 -34q-16 -14 -36 -17q-14 0 -34 15q-11 15 -11 37q0 16 18.5 33t36.5 17q20 0 32 -16q13 -13 13 -35zM637 281q-4 -16 -19 -29l-18 -9q-15 -5 -42.5 -15t-34.5 -13l-63 -34l34 -11q25 -6 31 -9t14 -14q5 -7 5 -16q0 -12 -6 -22q-10 -13 -12 -15
q-18 -18 -48 -18q-10 0 -32 7t-36 15l-35 19l-17 -9l-29 -18l-37 -22l-43 -24l-55 -31q-22 -14 -43 -24q-3 -2 -41 -20l-38 -18q-29 -12 -38 -12q-27 0 -43 13q-13 9 -16 22q-23 30 -23 43q1 4 3 10.5t3 10.5t3 7l15 21q3 3 15.5 5t18.5 1q8 -3 18 -14q2 -3 6 -7.5t4 -5.5
q9 -5 17 -4q11 0 39 15l91 48l80 46l29 17q-26 22 -26 47q0 9 1 12q9 26 33 38q10 6 23 6q25 0 40 -15l16 -19l63 36l58 29l31 12q41 19 63 19q11 0 24 -7q19 -8 19 -35q0 -1 -2 -9z" />
    <glyph glyph-name="uni079D" unicode="&#x79d;" horiz-adv-x="968" 
d="M619 402q0 -19 -18 -34q-14 -14 -36 -17q-15 0 -35 15q-11 17 -11 38q4 17 19 32q20 17 36 17q22 0 32 -16q13 -13 13 -35zM661 298q-11 -45 -55 -51q-14 0 -34 15q-11 15 -11 37q0 16 18.5 33t36.5 17q22 0 32 -16q13 -13 13 -35zM544 299q0 -17 -19 -34
q-17 -14 -36 -17q-16 0 -34 15q-11 15 -11 37q0 12 18 33q17 17 37 17t32 -16q13 -13 13 -35zM990 261q5 -14 -5 -32q-16 -28 -60 -53q-20 -15 -51 -28l-38 -16q-41 -11 -51 -11l-555 1l-9 -10q-6 -4 -18 -15q-25 -23 -36 -30q-30 -21 -52 -30q-18 -9 -36 -9q-21 0 -29 4
q-27 14 -27 39q0 6 5 26q1 4 8 7q8 4 45 18q19 6 32 18l5 4q-14 0 -25 6q-16 12 -16 34q-2 14 3.5 33t15.5 28q9 8 20 13t18 6.5t19 3t14 1.5q19 0 39 -5q24 -10 36 -35l10 -24h502q28 0 55 8q24 5 35 15q4 3 10 9q6 9 11 11l14 14l32 21q20 11 39 11q7 4 21.5 -5.5
t18.5 -27.5z" />
    <glyph glyph-name="uni079E" unicode="&#x79e;" horiz-adv-x="987" 
d="M990 261q5 -14 -5 -32q-16 -28 -60 -53q-20 -15 -51 -28l-38 -16q-41 -11 -51 -11l-555 1l-9 -10q-6 -4 -18 -15q-25 -23 -36 -30q-30 -21 -52 -30q-18 -9 -36 -9q-21 0 -29 4q-27 14 -27 39q0 6 5 26q1 4 8 7q8 4 45 18q19 6 32 18l5 4q-14 0 -25 6q-16 12 -16 34
q-2 14 3.5 33t15.5 28q9 8 20 13t18 6.5t19 3t14 1.5q19 0 39 -5q24 -10 36 -35l10 -24h502q28 0 55 8q24 5 35 15q4 3 10 9q6 9 11 11l14 14l32 21q20 11 39 11q7 4 21.5 -5.5t18.5 -27.5zM547 43q0 -17 -19 -34q-16 -14 -36 -17q-16 0 -34 15q-11 15 -11 37q0 12 18 33
q17 17 37 17t32 -16q13 -13 13 -35z" />
    <glyph glyph-name="uni079F" unicode="&#x79f;" horiz-adv-x="960" 
d="M568 340q-4 -21 -19 -34q-14 -14 -36 -17q-14 0 -34 15q-11 15 -11 37q0 16 18.5 33t36.5 17q20 0 32 -16q13 -13 13 -35zM937 261q5 -14 -5 -32q-16 -28 -60 -53q-20 -15 -51 -28l-38 -16q-41 -11 -51 -11l-555 1l-9 -10q-6 -4 -18 -15q-26 -23 -36 -30q-30 -21 -52 -30
q-18 -9 -36 -9q-21 0 -28 4q-28 13 -28 39q0 8 6 26q1 4 8 7q6 4 44 18q19 6 32 18l5 4q-15 0 -25 6q-16 12 -16 34q-2 14 3.5 33t15.5 28q9 8 20 13t18 6.5t19 3t14 1.5q19 0 39 -5q24 -10 36 -35l10 -24h502q28 0 55 8q24 5 35 15q4 3 10 9q6 9 11 11l14 14l32 21
q20 11 39 11q7 4 21.5 -5.5t18.5 -27.5z" />
    <glyph glyph-name="uni07A0" unicode="&#x7a0;" horiz-adv-x="589" 
d="M578 245q1 -3 1 -16v-14q-1 -4 -2.5 -15.5t-4.5 -20.5q-2 -15 -15 -37t-22 -29q-13 -17 -33 -27q-38 -27 -79 -27q-26 0 -56 14q-34 14 -46 31q-3 2 -6.5 7t-6.5 10t-4 6q-15 -7 -16 -7q-1 -1 -4.5 -3.5t-10.5 -8.5t-13 -11l10 -5q30 -18 39 -30q7 -14 7 -34
q-5 -27 -24 -47q-16 -18 -34 -29q-9 -7 -34 -19l-49 -19q-20 -8 -38 -13l-24 -5q-26 -6 -40 -6q-10 1 -26 7q-7 2 -12 4.5t-8.5 4.5t-5.5 5.5t-3.5 5t-2 5t-0.5 4.5v5v5q0 57 42 64q25 0 30 -1q3 0 18 -5.5t19 -5.5q19 0 28 -1q29 0 46 16q11 10 15 21q1 6 -3 9.5t-19 9.5
l-24 9q-25 10 -25 36q0 9 1 12q0 12 24 37l42 37q6 5 19.5 15t20.5 15l36 23l46 25q65 31 88 39q36 10 76 10q72 0 83 -56zM468 -31q-11 -45 -54 -51q-18 0 -34 15q-11 15 -11 37q0 16 18 33q17 17 36 17q22 0 32 -16q8 -12 13 -35zM479 173l3 14q3 9 -3 14q-2 6 -13 8
l-12 1q-45 -12 -59 -22l-18 -12l16 -13q18 -18 44 -18q30 0 42 28z" />
    <glyph glyph-name="uni07A1" unicode="&#x7a1;" horiz-adv-x="563" 
d="M493 387q0 -17 -18 -34q-17 -14 -35 -17q-16 0 -35 15q-10 13 -10 38q5 19 18 32q17 17 36 17q22 0 32 -16q12 -15 12 -35zM553 245q1 -3 1 -16v-14q-1 -4 -2.5 -15.5t-4.5 -20.5q-2 -15 -15 -37t-22 -29q-13 -16 -32 -27q-38 -27 -80 -27q-26 0 -56 14q-31 13 -46 31
q-2 2 -5.5 7l-7 10t-4.5 6q-13 -5 -15 -7q-4 -3 -29 -23l10 -5q30 -18 39 -30q8 -13 8 -34q-5 -26 -25 -47q-16 -18 -34 -29q-7 -7 -34 -19l-49 -19q-10 -6 -38 -13l-24 -5q-26 -6 -40 -6q-11 1 -26 7q-5 2 -9.5 4t-7.5 3.5t-5.5 4l-4 4t-2.5 4t-1.5 4t-1 4.5t-0.5 3.5v3.5
v4q2 29 10.5 44.5t31.5 19.5q26 0 31 -1q1 0 16.5 -5.5t19.5 -5.5q19 0 28 -1q29 0 46 16q14 12 15 21q1 6 -3 9t-18 10l-24 9q-26 11 -26 36q0 9 1 12q0 12 25 37l42 37l39 30l36 23l46 25q63 30 89 39q34 10 75 10q72 0 83 -56zM455 173l3 14q2 9 -3 14q-3 6 -14 8l-12 1
q-38 -8 -59 -22l-17 -12l15 -13q23 -18 45 -18q29 0 42 28z" />
    <glyph glyph-name="uni07A2" unicode="&#x7a2;" horiz-adv-x="559" 
d="M566 207q-1 -14 -9 -31l-13 -34l-17 -30l-14 -24q-1 -3 -3.5 -7t-6 -9.5t-6.5 -10.5q-12 -21 -23 -34q-28 -35 -33 -40q-6 -6 -11 -7l-17 -6q-3 -1 -12 -1q-4 0 -10 2q-6 0 -14 5q-8 7 -13 12q-4 7 -4 23q2 13 12 29q21 27 29 37q12 15 29 39q3 5 13.5 20.5t15.5 25.5
l12 25l2 2q-19 -6 -23 -10q-1 -1 -10 -8.5t-13 -11.5l-53 -43l-48 -37l-59 -42q-41 -25 -83 -47q-29 -17 -60 -27q-14 -3 -29 -1q-13 2 -21.5 7t-23.5 23q-14 16 -17.5 23.5t-3.5 25.5v11q1 7 10 19q7 11 10 14t10 6t19 3t15 -1q6 -2 16 -16q12 -14 18 -14q13 0 30 10
q17 7 85 52q18 11 32 22q1 1 3.5 3t7 5t7.5 6l34 27l34 27q5 6 32 28l34 28q22 19 39 24q7 4 28 4h18q16 -1 25 -9q13 -10 19.5 -19.5t7 -13.5t1.5 -14q3 -13 3 -27q0 -10 -1 -13zM347 -11q0 -18 -16 -33t-37 -18q-16 0 -35 15q-10 16 -10 38q5 17 18 32q20 17 36 17
q22 0 32 -16q12 -14 12 -35z" />
    <glyph glyph-name="uni07A3" unicode="&#x7a3;" horiz-adv-x="566" 
d="M532 409q0 -19 -18 -34q-14 -14 -35 -17q-17 0 -35 15q-11 17 -11 38q6 19 21.5 34t32.5 15q22 0 32 -16q13 -13 13 -35zM572 207q-1 -14 -9 -31l-13 -34l-17 -30l-14 -24q-21 -38 -38 -61l-24 -29q-6 -7 -10 -11q-6 -6 -11 -7l-17 -6q-3 -1 -12 -1q-4 0 -10 2
q-6 0 -14 5q-8 7 -13 12q-4 7 -4 23q2 13 12 29q21 27 29 37q12 15 29 39q3 5 13.5 20.5t15.5 25.5l12 25l2 2h1q-18 -5 -28 -14q-10 -7 -18 -15q-34 -31 -54 -44l-48 -37q-3 -3 -29 -21q-29 -20 -30 -21q-47 -30 -82 -47q-12 -7 -34 -17q-8 -4 -26 -10q-8 -1 -31 -1
q-10 0 -24 11q-8 5 -9 6q-10 9 -16 22q-2 6 -2 22v11q5 20 24 36q17 15 36 10q1 0 10.5 -8.5t14.5 -8.5q12 0 30 10q17 7 84 52q15 8 26 17q21 17 24 19l34 27l34 27q10 12 33 28l33 28q22 19 39 24q7 4 28 4h18q16 -1 25 -9q13 -10 19.5 -19.5t7 -13.5t1.5 -14q3 -13 3 -27
q0 -10 -1 -13z" />
    <glyph glyph-name="uni07A4" unicode="&#x7a4;" horiz-adv-x="508" 
d="M522 386q0 -17 -17 -32.5t-37 -18.5q-15 0 -33 15q-11 14 -11 38q5 17 18 32q17 17 36 17q20 0 32 -16q12 -15 12 -35zM402 386q0 -17 -17 -32.5t-37 -18.5q-14 0 -34 15q-10 13 -10 38q5 17 18 32q17 17 36 17q21 0 31 -16q13 -13 13 -35zM508 282q1 -3 1 -12
q0 -21 -25 -34l-23 -12l-33 -15l-35 -16l-29 -14q-1 -1 -10 -3l4 -8l8 -11l15 -21l8 -15l9 -13q4 -7 4 -22q0 -28 -29 -60l-18 -15l-24 -16l-37 -19q-69 -32 -132 -32l-15 -1l-31 -2l-22 1q-64 0 -64 46q-3 11 9.5 27.5t24.5 21.5l12 4l21 1l29 -1l25 -2q26 0 41 1
q33 2 59 10q43 11 51 29q1 7 -9 20l-6 7l-16 15l-14 14q-10 11 -13 20q-5 14 -2 25q3 8 9 16q6 5 14 13q15 13 17 14q12 7 18 12l21 13q2 2 6.5 4t10.5 5t9 5q27 14 29 15q6 3 17.5 8t13.5 6l29 11l17 7q9 4 18 4q12 0 28 -16q7 -9 9 -15z" />
    <glyph glyph-name="uni07A5" unicode="&#x7a5;" horiz-adv-x="568" 
d="M496 397q-4 -21 -19 -34q-14 -14 -35 -17q-16 0 -34 15q-12 16 -12 37q0 16 20 33q15 17 35 17t32 -16q13 -13 13 -35zM562 195v-20q-4 -30 -37 -63q-25 -25 -73 -55l-65 -44l-56 -33l-49 -29q-32 -19 -104 -51q-47 -20 -68 -20q-28 0 -45 16q-10 12 -11 14q-1 1 -10 21
q-11 20 -11 24q4 38 25 50q15 9 29 6q8 -3 10 -4q16 -10 19 -10q1 0 9 -9t13 -9q14 -1 41 15q12 3 44 20q17 9 36 21l16 9l-16 14q-15 17 -15 56q0 33 19 61q10 13 12 17q10 13 28 27q34 29 70 39q42 18 83 16q32 0 59 -15q47 -31 47 -64zM470 180q-6 10 -30 10
q-26 0 -43 -8q-36 -17 -49 -30q-8 -8 -15 -21q-7 -10 1 -19q1 -1 17 -11q6 -4 26 11l39 21q17 9 37 29q3 3 7 6t5.5 4t3.5 3t1.5 2.5t-0.5 2.5z" />
    <glyph glyph-name="uni07A6nsp" unicode="&#x7a6;" horiz-adv-x="0" 
d="M479 696l1 -15l-4 -16q-5 -15 -38 -38q-1 0 -21 -13l-41 -27l-30 -21l-55 -34l-46 -27q-30 -19 -57 -29q-27 -14 -54 -21q-2 0 -5 -1t-7.5 -2t-7.5 -2q-18 0 -30.5 16t-10.5 34q0 15 14 32q1 1 35 19l52 23l45 21l29 13l28 16l54 32l30 21l28 21l32 17q13 7 25 7
q17 0 23.5 -5.5t10.5 -20.5z" />
    <glyph glyph-name="uni07A7nsp" unicode="&#x7a7;" horiz-adv-x="0" 
d="M432 746q-5 -20 -14 -25q-62 -47 -147 -93q-65 -36 -120 -60q-12 -5 -17 -7q-14 -5 -18 -4q-19 0 -31 25q-2 6 -2 13q0 3 2 17q0 19 29 36q38 16 105 50q91 48 147 93q17 11 30 11q15 0 26 -11q11 -8 11 -35q-1 -5 -1 -10zM485 634q0 -17 -11 -25q-68 -49 -149 -93
q-67 -36 -121 -60q-27 -12 -34 -11q-14 1 -25.5 15.5t-8.5 25.5q-4 6 7.5 25t24.5 25q44 19 105 50q91 47 146 93q17 11 30 11q15 0 26 -11q11 -8 11 -35q-1 -5 -1 -10z" />
    <glyph glyph-name="uni07A8nsp" unicode="&#x7a8;" horiz-adv-x="0" 
d="M408 -249l1 -15l-4 -16q-6 -13 -20 -25q-4 -4 -38 -25l-42 -28l-30 -21q-13 -9 -28 -18q-4 -3 -13 -8t-14 -8l-47 -27q-25 -15 -56 -29q-27 -13 -54 -21q-5 -1 -19 -5q-17 0 -31 15t-10 35q0 16 13 32q8 5 36 19l52 23l45 21l28 13l29 16q6 3 14.5 8t11.5 7q14 8 26 17
l31 21q1 1 8 5.5t12.5 9t7.5 6.5l32 17q13 7 25 7q17 0 25 -7q5 -5 9 -19z" />
    <glyph glyph-name="uni07A9nsp" unicode="&#x7a9;" horiz-adv-x="0" 
d="M319 -193q-3 -18 -15 -25q-58 -41 -128 -74q-70 -34 -99 -48q-1 0 -20 -9q-8 -4 -13 -4q-20 0 -33 24q-3 7 -3 15q1 7 1 14q0 9 10 21.5t20 16.5q40 14 85 34q73 32 128 75q17 14 36 14q12 0 22 -9q10 -10 10 -33q0 -10 -1 -12zM309 -344q-3 -18 -15 -25
q-59 -42 -129 -76q-17 -8 -39 -19t-35.5 -17.5t-21.5 -10.5q-31 -13 -34 -13q-15 0 -25 13t-10 28q1 6 1 13q2 9 11.5 21t16.5 16q19 8 57 24.5t57 25.5q57 29 100 65q14 11 31 11q14 0 25 -11q10 -9 10 -45z" />
    <glyph glyph-name="uni07AAnsp" unicode="&#x7aa;" horiz-adv-x="0" 
d="M475 679q-10 -47 -75 -101q-45 -40 -84 -64q-18 -10 -38 -20l-55 -28q-28 -15 -51 -15q-5 1 -10 1q-9 2 -18 17.5t-9 27.5q0 21 13 33q13 9 36 18q12 3 23 6t17.5 5t7.5 2q5 1 31 14q9 4 44 26q55 30 69 65q2 6 -6 6q-57 -12 -80 -12q-6 0 -23 -11t-23 -11q-26 2 -36 12
q-5 8 -7 15q-4 9 -4 21q-4 26 46 48q17 9 32 13q19 6 67 6q71 0 108 -22q26 -15 26 -43q0 -7 -1 -9z" />
    <glyph glyph-name="uni07ABnsp" unicode="&#x7ab;" horiz-adv-x="0" 
d="M631 653q0 -26 -44 -67q-27 -27 -36 -34q-16 -15 -49 -35q-23 -14 -46 -27q-24 -13 -59 -30q-13 -6 -25 -6q-20 0 -32 17q-6 9 -6 23t2.5 23t11 16t13.5 9t20 9q41 18 79 43q21 13 59 43q1 1 5 3v1q-11 4 -24 4q-4 0 -39 -6q-17 -3 -36 -3q-49 0 -49 43q4 28 23 40
q9 9 34 17q16 4 57 4h18q25 0 47 -5q36 -9 59 -32q17 -26 17 -50zM350 653q0 -24 -43 -67q-22 -22 -36 -34q-17 -14 -50 -35q-31 -19 -45 -27q-24 -14 -60 -30q-12 -6 -25 -6q-20 0 -32 17q-6 9 -6 23t2.5 23t11 16t13.5 9t20 9q41 18 79 43q21 13 59 43l6 4q-12 4 -25 4
q-5 0 -39 -6q-16 -3 -36 -3q-48 0 -48 43q5 29 22 40q14 11 35 17q16 4 56 4h18q25 0 47 -5q36 -9 59 -32q17 -20 17 -50z" />
    <glyph glyph-name="uni07ACnsp" unicode="&#x7ac;" horiz-adv-x="0" 
d="M464 721q-1 -13 -19 -26q-24 -12 -60.5 -29t-49.5 -23q-78 -38 -82 -73q-3 -19 13 -23q8 -2 30 -2q37 0 46 6q12 8 18 13q10 6 21 6q15 0 25 -11t10 -28q0 -14 -9 -29q-32 -51 -116 -51q-54 0 -95 32q-39 31 -39 76q0 2 2 24q3 20 33.5 54.5t78.5 65.5q17 13 47 27
q14 7 56 25q20 10 25 11q15 5 24 5q15 0 26 -11q18 -16 15 -39z" />
    <glyph glyph-name="uni07ADnsp" unicode="&#x7ad;" horiz-adv-x="0" 
d="M603 687q0 -22 -19 -39q-23 -14 -79 -41q-77 -38 -80 -52q-3 -13 -3 -15q0 -13 43 -13q41 0 53 16q13 16 27 16q19 0 30.5 -12.5t11.5 -35.5q-5 -28 -29 -42q-24 -13 -45 -17q-23 -5 -74 -5q-69 0 -100 27q-20 20 -20 47q1 4 1 10q4 23 24 49q32 37 88 75q54 37 105 62
q23 9 31 9q15 0 22 -10q13 -9 13 -29zM302 672q-2 -4 -81 -54q-79 -48 -79 -73q0 -17 15 -17q7 1 20 1q39 0 54 16q15 17 32 17q15 0 26 -18.5t8 -36.5q-5 -37 -44 -50q-26 -10 -76 -10q-99 0 -123 39q-13 18 -13 44q0 9 1 12q4 37 61 82q29 26 61 47q45 31 70 46q13 7 34 7
q36 0 36 -30z" />
    <glyph glyph-name="uni07AEnsp" unicode="&#x7ae;" horiz-adv-x="2" 
d="M616 701q-2 -30 -28 -49q-7 -4 -29 -9t-57 -24q-42 -20 -62 -40q2 -20 33 -20q6 0 13.5 0.5t17 1.5t15.5 1q30 0 38 -5q20 -12 17 -38q-5 -25 -29 -35q-24 -11 -66 -11q-69 0 -107 17q-17 9 -23.5 18t-6.5 28q-2 15 -13 15q-20 -17 -34 -28q-42 -33 -77 -54
q-74 -42 -116 -42h-23q-23 0 -30 22q-2 4 -2 11q0 15 12 31t27 20q34 9 98 38q48 20 73 31q3 5 11 17q-8 7 -45 7q-27 0 -47 -7q-13 -5 -23 8q-7 8 -8 15q-7 12 -5 31q3 20 12.5 28.5t29.5 14.5q22 2 24 2q10 0 36 -2q58 -2 80.5 -8t32.5 -28q1 -3 1 -12q0 -12 15 -12
q5 0 13 7q18 13 21 16l49 34q42 29 58 36q22 11 55 17q24 5 36.5 -11t12.5 -32z" />
    <glyph glyph-name="uni07AFnsp" unicode="&#x7af;" horiz-adv-x="1" 
d="M574 764q-7 -57 -84 -125q-22 -20 -76 -56q-17 0 -35 18q-14 14 -11 32q30 21 42 30t32 27t29 34.5t12 36.5q1 4 1 11q0 22 -30 22h-14q-50 0 -143 -69q-93 -68 -119 -131q-4 -9 -4 -20q0 -31 47 -31q11 0 21 10l26 24q11 8 23 8q13 4 27 -13.5t10 -36.5q-3 -28 -46 -56
t-92 -28q-47 0 -76 35q-28 35 -28 80q0 13 1 16q11 78 143 190q133 112 220 112q59 0 92 -28.5t33 -76.5q0 -12 -1 -15z" />
    <glyph glyph-name="uni07B0nsp" unicode="&#x7b0;" horiz-adv-x="0" 
d="M450 645q-5 -35 -23 -63q-16 -24 -41 -49q-36 -35 -81.5 -56.5t-79.5 -21.5q-65 0 -88 30q-19 22 -19 61q0 8 2 30q2 18 27 57q27 41 59 69q65 57 144 57q47 0 74 -27t27 -72q0 -12 -1 -15zM360 636q4 17 -3 23.5t-24 6.5q-6 -1 -12 -1q-24 0 -56 -20q-50 -34 -50 -58
q-2 -22 3 -29.5t18 -7.5q7 1 13 1q26 0 66.5 29t44.5 56z" />
    <glyph glyph-name="endash" unicode="&#x2013;" horiz-adv-x="550" 
d="M467 196v-32l-2 -15l-12 -1l-361 1l-2 15v32l2 14l12 2h361z" />
    <glyph glyph-name="emdash" unicode="&#x2014;" horiz-adv-x="500" 
d="M509 -175v-41h-517v41h517z" />
    <glyph glyph-name="quoteleft" unicode="&#x2018;" horiz-adv-x="316" 
d="M176 623q0 24 7 41q19 50 78 79l25 11q6 2 7 2q5 0 7 -5l7 -18l-3 -4q-3 -3 -5 -4l-15 -6q-59 -27 -59 -64q0 -24 34 -34q46 -15 46 -48q0 -20 -15 -32.5t-36 -12.5q-35 0 -57 31q-21 27 -21 64z" />
    <glyph glyph-name="quoteright" unicode="&#x2019;" horiz-adv-x="364" 
d="M324 568q0 -24 -7 -41q-19 -50 -78 -79l-25 -11q-6 -2 -7 -2q-5 0 -7 5l-7 18l3 4q3 3 5 4l15 6q59 27 59 64q0 24 -34 34q-46 13 -46 48q0 20 15 32.5t36 12.5q35 0 57 -31q21 -27 21 -64z" />
    <glyph glyph-name="quotedblleft" unicode="&#x201c;" horiz-adv-x="474" 
d="M301 741l10 -16q-32 -13 -55 -39q-11 -14 -11 -31q0 -7 3 -14q0 -1 9.5 -13t11.5 -16q3 -6 3 -15q0 -18 -12.5 -31.5t-30.5 -13.5t-30 14t-12 37q0 57 52 99q24 18 62 39zM445 740l9 -14q-67 -38 -67 -69q0 -9 3 -15l10 -14l13 -16q3 -6 3 -14q0 -19 -13 -32t-30 -13
q-19 0 -31.5 13.5t-12.5 36.5q0 84 116 137z" />
    <glyph glyph-name="quotedblright" unicode="&#x201d;" horiz-adv-x="521" 
d="M408 552l-10 17q34 14 55 39q11 14 11 30q0 8 -3 14q0 2 -10 14.5t-11 15.5q-3 5 -3 15q0 18 12.5 31t30.5 13t30 -14t12 -37q0 -57 -52 -99q-16 -12 -62 -39zM264 553l-9 15q67 36 67 69q0 8 -3 14q0 1 -1.5 3t-4 5.5t-4.5 6.5l-13 15q-3 8 -3 15q0 18 13 31t30 13
q19 0 31.5 -13.5t12.5 -36.5q0 -83 -116 -137z" />
    <glyph glyph-name="bullet" unicode="&#x2022;" horiz-adv-x="482" 
d="M149 428q46 34 105 34q93 0 147 -76q33 -48 33 -105q0 -90 -74 -145q-47 -35 -107 -35q-92 0 -146 75q-34 46 -34 105q0 91 76 147z" />
    <glyph glyph-name="uni07A6" 
d="M622 696l1 -15l-4 -16q-5 -15 -38 -38q-1 0 -21 -13l-41 -27l-30 -21l-55 -34l-46 -27q-30 -19 -57 -29q-27 -14 -54 -21q-2 0 -5 -1t-7.5 -2t-7.5 -2q-18 0 -30.5 16t-10.5 34q0 15 14 32q1 1 35 19l52 23l45 21l29 13l28 16l54 32l30 21l28 21l32 17q13 7 25 7
q17 0 23.5 -5.5t10.5 -20.5z" />
    <glyph glyph-name="uni07A7" 
d="M543 746q-5 -20 -14 -25q-61 -47 -147 -93q-64 -36 -120 -60q-12 -5 -17 -7q-14 -5 -18 -4q-19 0 -31 25q-2 6 -2 13q0 3 2 17q0 19 29 36q38 16 105 50q92 48 147 93q17 11 30 11q15 0 26 -11q11 -8 11 -35q-1 -5 -1 -10zM596 634q0 -17 -11 -25q-68 -49 -149 -93
q-67 -36 -121 -60q-27 -12 -34 -11q-14 1 -25.5 15.5t-8.5 25.5q-4 6 7.5 25t24.5 25q44 19 105 50q91 47 146 93q17 11 30 11q15 0 26 -11q11 -8 11 -35q-1 -5 -1 -10z" />
    <glyph glyph-name="uni07A8" 
d="M356 -249l1 -15l-4 -16q-6 -13 -20 -25q-4 -4 -38 -25l-42 -28l-30 -21q-13 -9 -28 -18q-5 -3 -14 -8t-13 -8l-47 -27q-25 -15 -56 -29q-27 -13 -54 -21q-5 -1 -19 -5q-17 0 -31 15t-10 35q0 16 13 32q8 5 36 19l52 23l45 21l28 13l29 16q6 3 15 8t11 7q14 8 26 17l31 21
q1 1 8 5.5t12.5 9t7.5 6.5l32 17q13 7 25 7q17 0 25 -7q5 -5 9 -19z" />
    <glyph glyph-name="uni07A9" 
d="M373 -193q-3 -18 -15 -25q-58 -41 -128 -74q-70 -34 -99 -48q-1 0 -20 -9q-8 -4 -13 -4q-20 0 -33 24q-3 7 -3 15q1 7 1 14q0 9 10 21.5t20 16.5q40 14 85 34q73 32 128 75q17 14 36 14q12 0 22 -9q10 -10 10 -33q0 -10 -1 -12zM363 -344q-3 -18 -15 -25
q-59 -42 -129 -76q-17 -8 -39 -19t-35.5 -17.5t-21.5 -10.5q-31 -13 -34 -13q-15 0 -25 13t-10 28q1 6 1 13q2 9 11.5 21t16.5 16q19 8 57 24.5t57 25.5q57 29 100 65q14 11 31 11q14 0 25 -11q10 -9 10 -45z" />
    <glyph glyph-name="uni07AA" 
d="M542 679q-10 -47 -75 -101q-45 -40 -84 -64q-18 -10 -38 -20l-55 -28q-28 -15 -51 -15q-5 1 -10 1q-9 2 -18 17.5t-9 27.5q0 21 13 33q13 9 36 18q12 3 23 6t17.5 5t7.5 2q5 1 31 14q9 4 44 26q55 30 69 65q1 6 -6 6q-57 -12 -80 -12q-6 0 -23 -11t-23 -11q-26 2 -36 12
q-5 8 -7 15q-4 9 -4 21q-4 26 46 48q17 9 32 13q19 6 67 6q71 0 108 -22q26 -15 26 -43q0 -7 -1 -9z" />
    <glyph glyph-name="uni07AB" 
d="M689 653q0 -26 -44 -67q-27 -27 -36 -34q-16 -15 -49 -35q-23 -14 -46 -27q-24 -13 -59 -30q-14 -6 -25 -6q-20 0 -32 17q-6 9 -6 23t2.5 23t11 16t13.5 9t20 9q41 18 79 43q21 13 59 43q1 1 5 3v1q-11 4 -24 4q-4 0 -39 -6q-17 -3 -36 -3q-49 0 -49 43q4 28 23 40
q9 9 34 17q16 4 57 4h18q25 0 47 -5q36 -9 59 -32q17 -26 17 -50zM408 653q0 -24 -43 -67q-22 -22 -36 -34q-17 -14 -50 -35q-31 -19 -45 -27q-24 -14 -60 -30q-12 -6 -25 -6q-20 0 -32 17q-6 9 -6 23t2.5 23t11 16t13.5 9t20 9q41 18 79 43q21 13 59 43l6 4q-12 4 -25 4
q-5 0 -39 -6q-16 -3 -36 -3q-48 0 -48 43q5 29 22 40q14 11 35 17q16 4 56 4h18q25 0 47 -5q36 -9 59 -32q17 -20 17 -50z" />
    <glyph glyph-name="uni07AC" 
d="M562 721q-1 -13 -19 -26q-24 -12 -60.5 -29t-49.5 -23q-78 -38 -82 -73q-3 -19 13 -23q8 -2 30 -2q37 0 46 6q12 8 18 13q10 6 21 6q15 0 25 -11t10 -28q0 -14 -9 -29q-32 -51 -116 -51q-54 0 -95 32q-39 31 -39 76q0 2 2 24q3 20 33.5 54.5t78.5 65.5q17 13 47 27
q14 7 56 25q20 10 25 11q15 5 24 5q15 0 26 -11q18 -16 15 -39z" />
    <glyph glyph-name="uni07AD" 
d="M706 687q0 -22 -19 -39q-23 -14 -79 -41q-77 -38 -80 -52q-3 -13 -3 -15q0 -13 43 -13q41 0 53 16q13 16 27 16q19 0 30.5 -12.5t11.5 -35.5q-5 -28 -29 -42q-24 -13 -45 -17q-23 -5 -74 -5q-68 0 -100 27q-20 20 -20 47q1 4 1 10q4 23 24 49q32 37 88 75q54 37 105 62
q23 9 31 9q15 0 22 -10q13 -9 13 -29zM405 672q-1 -4 -81 -54q-79 -48 -79 -73q0 -17 15 -17q7 1 20 1q39 0 54 16q15 17 32 17q15 0 26 -18.5t8 -36.5q-5 -37 -44 -50q-26 -10 -76 -10q-99 0 -123 39q-13 18 -13 44q0 9 1 12q4 37 61 82q29 26 61 47q45 31 70 46q13 7 34 7
q36 0 36 -30z" />
    <glyph glyph-name="uni07AE" 
d="M699 701q-2 -30 -28 -49q-7 -4 -29 -9t-57 -24q-42 -20 -62 -40q2 -20 33 -20q6 0 13.5 0.5t17 1.5t15.5 1q30 0 38 -5q20 -12 17 -38q-5 -25 -29 -35q-24 -11 -66 -11q-69 0 -107 17q-17 9 -23.5 18t-6.5 28q-1 15 -13 15q-20 -17 -34 -28q-42 -33 -77 -54
q-74 -42 -116 -42h-23q-23 0 -30 22q-2 4 -2 11q0 15 12 31t27 20q34 9 98 38q48 20 73 31q3 5 11 17q-8 7 -45 7q-27 0 -47 -7q-13 -5 -23 8q-7 8 -8 15q-7 12 -5 31q3 20 12.5 28.5t29.5 14.5q22 2 24 2q10 0 36 -2q58 -2 80.5 -8t32.5 -28q1 -3 1 -12q0 -12 15 -12
q5 0 13 7q18 13 21 16l49 34q42 29 58 36q22 11 55 17q24 5 36.5 -11t12.5 -32z" />
    <glyph glyph-name="uni07AF" 
d="M697 764q-7 -57 -84 -125q-22 -20 -76 -56q-17 0 -35 18q-14 14 -11 32q30 21 42 30t32 27t29 34.5t12 36.5q1 4 1 11q0 22 -30 22h-14q-50 0 -143 -69q-93 -68 -119 -131q-4 -9 -4 -20q0 -31 47 -31q11 0 21 10q25 24 26 24q11 8 23 8q13 4 27 -13.5t10 -36.5
q-3 -28 -46 -56t-92 -28q-47 0 -76 35q-28 35 -28 80q0 13 1 16q11 78 143 190q133 112 220 112q59 0 92 -28.5t33 -76.5q0 -12 -1 -15z" />
    <glyph glyph-name="uni07B0" 
d="M579 645q-5 -35 -23 -63q-16 -24 -41 -49q-36 -35 -81.5 -56.5t-79.5 -21.5q-66 0 -88 30q-19 22 -19 61q0 8 2 30q1 18 27 57q27 41 59 69q65 57 144 57q47 0 74 -27t27 -72q0 -12 -1 -15zM489 636q4 17 -3 23.5t-24 6.5q-6 -1 -12 -1q-24 0 -56 -20q-50 -34 -50 -58
q-2 -22 3 -29.5t18 -7.5q7 1 13 1q26 0 66.5 29t44.5 56z" />
    <glyph glyph-name="DotAbove" horiz-adv-x="333" 
d="M116 41q0 12 11.5 24.5t24.5 12.5q15 0 24 -9t9 -25q0 -14 -10.5 -25t-24.5 -11q-16 0 -25 9t-9 24z" />
    <glyph glyph-name="DotBelow" horiz-adv-x="333" 
d="M116 41q0 12 11.5 24.5t24.5 12.5q15 0 24 -9t9 -25q0 -14 -10.5 -25t-24.5 -11q-16 0 -25 9t-9 24z" />
    <glyph glyph-name="TwoDots" horiz-adv-x="333" 
d="M36 42q0 13 12 25.5t25 12.5q16 0 25 -9.5t9 -25.5q0 -14 -11 -25.5t-25 -11.5q-16 0 -25.5 9t-9.5 25zM146 40q0 14 11 25.5t24 11.5q34 0 34 -33q0 -14 -11 -25t-25 -11q-15 0 -24 9t-9 23z" />
    <glyph glyph-name="ThreeDots" horiz-adv-x="333" 
d="M96 112q0 13 12 25t25 12q14 0 23.5 -9t9.5 -24q0 -14 -11 -25t-25 -11q-30 -4 -34 32zM16 28q0 14 11.5 26t24.5 12q15 0 24 -9t9 -25q0 -13 -11 -24.5t-24 -11.5q-16 0 -25 9t-9 23zM188 83q32 0 32 -32q0 -13 -10.5 -23.5t-23.5 -10.5q-34 -6 -36 31q-1 15 11.5 25
t26.5 10z" />
    <glyph glyph-name=".notdef.001" horiz-adv-x="1000" 
d="M875 0h-750v750h750v-750zM187 687v-625h625v625h-625z" />
  </font>
</defs>
</svg>
